<svg preserveAspectRatio="none" width="100%" height="100%" overflow="visible" style="display: block;" viewBox="0 0 25 25" fill="none" xmlns="http://www.w3.org/2000/svg">
<g id="ideogram-seeklogo 1" clip-path="url(#clip0_94_179)">
<path id="Vector" d="M10.4964 5.67903H6.58956M10.4964 19.3418H6.58956M1.22242 12.5162H10.5065M9.88389 22.6781H10.8367C12.7086 22.6781 14.226 21.1607 14.226 19.2889C14.226 17.4171 12.7086 15.8996 10.8367 15.8996M10.8367 15.8996H3.26169M10.8367 15.8996C12.7086 15.8996 14.226 14.3822 14.226 12.5104C14.226 10.8957 13.0969 9.54483 11.5852 9.20408C11.3444 9.14981 11.0939 9.09758 10.8367 9.09758M9.88389 2.31914H10.8367C12.7086 2.31914 14.226 3.83656 14.226 5.70836C14.226 7.58019 12.7086 9.09758 10.8367 9.09758M10.8367 9.09758H3.26169" stroke="var(--stroke-0, black)" stroke-width="2.11556" stroke-linecap="round" stroke-linejoin="round"/>
<path id="Vector_2" d="M14.1977 6.64403C14.587 6.33409 15.0558 6.14028 15.5503 6.08485C16.0447 6.02942 16.5448 6.11464 16.993 6.33069C17.9077 6.77158 18.4891 7.69728 18.4891 8.71267C18.4891 8.24849 18.6113 7.7925 18.8434 7.39051C19.0754 6.98853 19.4093 6.65472 19.8113 6.42264C20.2132 6.19056 20.6692 6.06838 21.1334 6.06838C21.5975 6.06838 22.0535 6.19056 22.4555 6.42264M14.1848 13.0712C14.3236 12.9471 14.4751 12.8379 14.6369 12.7457L14.6356 12.7451C15.0012 12.536 15.4115 12.4173 15.8323 12.3989C16.2531 12.3804 16.6722 12.4627 17.0548 12.639C17.4373 12.8152 17.7722 13.0803 18.0316 13.4122C18.291 13.744 18.4673 14.133 18.546 14.5468C18.7933 15.7197 19.796 16.5723 20.9801 16.6406L20.9797 16.6436C21.2267 16.6581 21.4746 16.6379 21.716 16.5834" stroke="var(--stroke-0, black)" stroke-width="2.11556" stroke-linecap="round" stroke-linejoin="round"/>
<path id="Vector_3" d="M13.1726 22.1766C13.1242 22.0808 13.0816 21.9822 13.0451 21.8813M21.1334 11.3569C22.2029 11.3569 23.1671 10.7127 23.5764 9.72456C23.9857 8.73647 23.7594 7.59911 23.0031 6.84286C22.6093 6.45293 22.1029 6.19657 21.5555 6.11006C21.3938 5.28055 21.0545 4.49587 20.5609 3.80988C20.0673 3.1239 19.4311 2.55288 18.696 2.13603C17.7432 1.59591 16.658 1.3338 15.5638 1.37947C14.4695 1.42513 13.41 1.77674 12.5055 2.39436C12.4213 2.45424 12.3386 2.51633 12.2577 2.58058M18.0868 20.2991C18.6995 21.2371 19.837 21.6872 20.9258 21.4222C22.0145 21.1573 22.818 20.235 22.9313 19.1202C23.0344 18.1037 22.5427 17.1187 21.6683 16.5902C22.9641 16.3226 23.8627 15.1382 23.7713 13.8181C23.6751 12.4321 22.5228 11.3569 21.1334 11.3569M13.1813 22.1932C13.7995 23.3949 15.2244 23.937 16.4851 23.4502C17.7458 22.9634 18.4365 21.6044 18.0868 20.2991" stroke="var(--stroke-0, black)" stroke-width="2.11556" stroke-linecap="round" stroke-linejoin="round"/>
</g>
<defs>
<clipPath id="clip0_94_179">
<rect width="25" height="25" fill="white"/>
</clipPath>
</defs>
</svg>
