<svg preserveAspectRatio="none" width="100%" height="100%" overflow="visible" style="display: block;" viewBox="0 0 36 36" fill="none" xmlns="http://www.w3.org/2000/svg">
<g id="icon">
<rect width="36" height="36" rx="18" fill="var(--fill-0, white)"/>
<path id="mic-icon" d="M24.125 15C24.6082 15 24.9999 15.3918 25 15.875V17.625C25 19.4815 24.2629 21.2624 22.9502 22.5752C21.845 23.6803 20.4076 24.3774 18.873 24.5703C18.8741 24.5883 18.875 24.6067 18.875 24.625V26.375C18.875 26.8583 18.4833 27.25 18 27.25C17.5168 27.2499 17.125 26.8582 17.125 26.375V24.625C17.125 24.6067 17.1258 24.5883 17.127 24.5703C15.5926 24.3774 14.156 23.6802 13.0508 22.5752C11.738 21.2624 11 19.4815 11 17.625V15.875C11.0001 15.3918 11.3918 15 11.875 15C12.3582 15 12.7499 15.3918 12.75 15.875V17.625C12.75 19.0174 13.3035 20.3533 14.2881 21.3379C15.2726 22.3223 16.6078 22.875 18 22.875C19.3924 22.875 20.7283 22.3225 21.7129 21.3379C22.6975 20.3533 23.25 19.0174 23.25 17.625V15.875C23.2501 15.3919 23.6419 15.0001 24.125 15ZM18 8C19.933 8 21.5 9.567 21.5 11.5V17.625C21.5 19.558 19.933 21.125 18 21.125C16.067 21.125 14.5 19.558 14.5 17.625V11.5C14.5 9.56702 16.067 8.00004 18 8ZM18 9.75C17.0335 9.75004 16.25 10.5335 16.25 11.5V17.625C16.25 18.5915 17.0335 19.375 18 19.375C18.9665 19.375 19.75 18.5915 19.75 17.625V11.5C19.75 10.5335 18.9665 9.75 18 9.75Z" fill="var(--fill-0, #6F00FF)"/>
</g>
</svg>
