<svg preserveAspectRatio="none" width="100%" height="100%" overflow="visible" style="display: block;" viewBox="0 0 18 14" fill="none" xmlns="http://www.w3.org/2000/svg">
<g id="Group">
<path id="Vector" d="M14.975 1.11769C13.8475 0.60036 12.6385 0.219214 11.3743 0.000915733C11.3513 -0.00329736 11.3283 0.00723138 11.3165 0.0282894C11.161 0.304846 10.9887 0.665637 10.8681 0.949217C9.50846 0.745663 8.15579 0.745663 6.82402 0.949217C6.70338 0.659334 6.52489 0.304846 6.3687 0.0282894C6.35684 0.00793398 6.33385 -0.00259476 6.31083 0.000915733C5.0474 0.218516 3.83836 0.599663 2.71019 1.11769C2.70042 1.1219 2.69205 1.12893 2.6865 1.13805C0.393204 4.56418 -0.235025 7.9061 0.073163 11.2066C0.0745575 11.2227 0.0836217 11.2382 0.0961725 11.248C1.60922 12.3591 3.07487 13.0337 4.5133 13.4808C4.53632 13.4879 4.56071 13.4794 4.57536 13.4605C4.91562 12.9958 5.21894 12.5059 5.479 11.9906C5.49434 11.9605 5.47969 11.9247 5.44833 11.9127C4.96722 11.7302 4.50911 11.5077 4.06845 11.255C4.03359 11.2347 4.0308 11.1848 4.06287 11.1609C4.1556 11.0915 4.24836 11.0191 4.3369 10.9461C4.35292 10.9328 4.37525 10.93 4.39408 10.9384C7.28908 12.2602 10.4233 12.2602 13.2841 10.9384C13.3029 10.9293 13.3253 10.9321 13.342 10.9455C13.4306 11.0185 13.5233 11.0915 13.6167 11.1609C13.6488 11.1848 13.6467 11.2347 13.6118 11.255C13.1712 11.5126 12.7131 11.7302 12.2313 11.912C12.1999 11.924 12.1859 11.9605 12.2013 11.9906C12.4669 12.5051 12.7702 12.9951 13.1042 13.4598C13.1182 13.4794 13.1433 13.4879 13.1663 13.4808C14.6117 13.0337 16.0773 12.3591 17.5904 11.248C17.6036 11.2382 17.612 11.2234 17.6134 11.2073C17.9822 7.39156 16.9956 4.07704 14.998 1.13874C14.9931 1.12893 14.9847 1.1219 14.975 1.11769ZM5.91132 9.19693C5.03972 9.19693 4.32156 8.39674 4.32156 7.41403C4.32156 6.43132 5.0258 5.63113 5.91132 5.63113C6.80379 5.63113 7.51501 6.43834 7.50106 7.41403C7.50106 8.39674 6.79681 9.19693 5.91132 9.19693ZM11.7892 9.19693C10.9176 9.19693 10.1995 8.39674 10.1995 7.41403C10.1995 6.43132 10.9037 5.63113 11.7892 5.63113C12.6817 5.63113 13.3929 6.43834 13.379 7.41403C13.379 8.39674 12.6817 9.19693 11.7892 9.19693Z" fill="var(--fill-0, black)"/>
</g>
</svg>
