<svg preserveAspectRatio="none" width="100%" height="100%" overflow="visible" style="display: block;" viewBox="0 0 29 70" fill="none" xmlns="http://www.w3.org/2000/svg">
<g id="Vector" style="mix-blend-mode:difference">
<path d="M12.2967 68.0545C12.9346 68.1612 13.6218 68.2497 14.3652 68.2497C20.0363 68.2497 22.7854 63.7594 22.7854 58.2633C22.7854 52.2361 19.5108 48.336 13.5477 47.0965L12.2967 46.8331V44.8831C12.9346 44.9898 13.6218 45.0783 14.3652 45.0783C20.0363 45.0783 22.7854 40.588 22.7854 35.0919C22.7854 29.0647 19.5108 25.1646 13.5477 23.9251L12.2967 23.6617V21.7412L12.847 21.8593C14.1339 22.1544 15.3041 22.2724 16.2968 22.2724C20.6225 22.2724 22.7876 19.8479 22.7876 15.3575C22.7876 13.1124 21.9701 11.1623 20.3889 9.68672L29.0022 11.5369V4.19977L10.8436 0.295119V2.20658L0.586199 0V7.26674L12.2967 9.80477V7.916C15.3647 8.64472 16.6471 10.0295 16.6471 11.9228C16.6471 13.9296 15.769 14.6402 14.0733 14.6402C13.5477 14.6402 12.9054 14.5834 12.2046 14.4041L10.8436 14.109V16L0.586199 13.7684V21.1532L11.0569 23.3916L10.8436 23.3462V25.294C10.2169 25.1805 9.30731 25.0511 8.36176 25.0511C3.21623 25.0533 0 28.7764 0 34.9217C0 41.067 3.33302 44.9694 9.23768 46.2089L10.8413 46.5471V48.538L0.583953 46.3428V53.6708L12.2945 56.193V54.1294L13.3725 54.361C15.5938 54.7741 16.6449 55.9569 16.6449 58.025C16.6449 60.0931 15.5331 61.0375 13.6061 61.0375C13.1367 61.0375 12.9054 60.9807 12.6718 60.9194L10.8436 60.5244V62.3428L0.586199 60.1112V67.496L12.2967 70V68.0545ZM6.13824 35.3371C6.13824 33.328 7.25 32.2611 9.11865 32.2611C9.58806 32.2611 9.81939 32.3201 10.0552 32.3814L12.2945 32.8627V30.9535L13.3725 31.185C15.5938 31.5982 16.6449 32.7809 16.6449 34.849C16.6449 36.9171 15.5331 37.8615 13.6061 37.8615C13.1367 37.8615 12.9054 37.8048 12.6718 37.7435L10.8436 37.3485V39.2486L9.41287 38.9398C7.1916 38.4654 6.14049 37.3439 6.14049 35.3348L6.13824 35.3371Z" fill="var(--fill-0, black)"/>
</g>
</svg>
