<svg preserveAspectRatio="none" width="100%" height="100%" overflow="visible" style="display: block;" viewBox="0 0 98 24" fill="none" xmlns="http://www.w3.org/2000/svg">
<g id="deepmind-logo" clip-path="url(#clip0_94_83)">
<path id="Vector" d="M16.1146 1.12995C14.7024 0.42843 13.0228 0.000381098 11.426 0.000381098C6.6094 0.000381098 3.72846 4.19764 4.03727 8.29581C4.1766 10.1507 5.04277 11.9461 6.47383 13.3492C6.98599 13.8565 7.55841 14.2885 8.17603 14.6373C7.70905 14.0507 7.40025 13.3412 7.27974 12.5842C6.95963 10.5232 8.25135 7.49123 11.5541 7.49123C15.1053 7.49123 19.0181 11.0464 19.3458 15.4141C19.5491 18.0894 18.5851 20.4952 16.9582 22.1757C20.3325 20.1187 22.5958 16.2861 22.5958 11.8906C22.5958 7.13849 19.9446 3.03636 16.1146 1.12995Z" fill="var(--fill-0, black)"/>
<path id="Vector_2" d="M18.5585 15.485C18.4192 13.6301 17.553 11.8347 16.122 10.4316C15.6098 9.92431 15.0374 9.49229 14.4198 9.14351C14.8868 9.7301 15.1956 10.4395 15.3161 11.1966C15.6362 13.2575 14.3445 16.2895 11.0417 16.2895C7.49046 16.2895 3.57766 12.7344 3.25002 8.36668C3.04666 5.69534 4.01073 3.28559 5.63762 1.6051C2.27087 3.66211 0.00754752 7.4987 0.00754752 11.8941C0.00754752 16.6463 2.65877 20.7484 6.48872 22.6548C7.90095 23.3563 9.58055 23.7844 11.1773 23.7844C15.9864 23.7804 18.8673 19.5831 18.5585 15.485Z" fill="var(--fill-0, black)"/>
<path id="Vector_3" d="M31.8523 5.9455H28.2521V17.8357H31.8523C35.8216 17.8357 37.6481 15.5607 37.6481 11.9065C37.6481 8.24032 35.8216 5.9455 31.8523 5.9455ZM31.8034 16.4089H29.8489V7.35648H31.7996C34.9291 7.35648 36.0137 9.08849 36.0137 11.9104C36.0175 14.7086 34.9366 16.4089 31.8034 16.4089Z" fill="var(--fill-0, black)"/>
<path id="Vector_4" d="M42.4157 9.20719C40.0281 9.20719 38.3974 10.9907 38.3974 13.6581C38.3974 16.2898 40.0431 18.0416 42.4006 18.0416C44.2911 18.0416 45.5979 16.8526 46.031 15.2712H44.4342C44.1103 16.1035 43.4023 16.6465 42.4006 16.6465C41.1578 16.6465 40.062 15.731 39.964 14.0148H46.2419C46.2569 13.7096 46.2569 13.456 46.2569 13.2182C46.2569 11.0423 44.7694 9.20719 42.4157 9.20719ZM39.9942 12.8258C40.1712 11.3633 41.203 10.6023 42.3968 10.6023C43.6547 10.6023 44.6074 11.4505 44.6715 12.8258H39.9942Z" fill="var(--fill-0, black)"/>
<path id="Vector_5" d="M51.1151 9.20719C48.7275 9.20719 47.0968 10.9907 47.0968 13.6581C47.0968 16.2898 48.7425 18.0416 51.1 18.0416C52.9867 18.0416 54.2935 16.8526 54.7303 15.2712H53.1336C52.8097 16.1035 52.1017 16.6465 51.1 16.6465C49.8572 16.6465 48.7613 15.731 48.6634 14.0148H54.9412C54.9563 13.7096 54.9563 13.456 54.9563 13.2182C54.9563 11.0423 53.4688 9.20719 51.1151 9.20719ZM48.6936 12.8258C48.8706 11.3633 49.9024 10.6023 51.1 10.6023C52.3578 10.6023 53.3106 11.4505 53.3746 12.8258H48.6936Z" fill="var(--fill-0, black)"/>
<path id="Vector_6" d="M60.3454 9.20719C58.9106 9.20719 58.0067 9.93646 57.5059 10.7529L57.3439 9.40933H55.9053V21.5691H57.5059V16.5118C58.0557 17.4788 59.0537 18.0416 60.3303 18.0416C62.6878 18.0416 64.2996 16.1907 64.2996 13.6423C64.2996 11.0938 62.684 9.20719 60.3454 9.20719ZM60.0855 16.5791C58.5829 16.5791 57.5021 15.3901 57.5021 13.6224C57.5021 11.8746 58.5829 10.6657 60.0855 10.6657C61.6032 10.6657 62.669 11.8706 62.669 13.6224C62.669 15.3901 61.6032 16.5791 60.0855 16.5791Z" fill="var(--fill-0, black)"/>
<path id="Vector_7" d="M70.9916 13.9793L67.0863 5.9455H65.2146V17.8357H66.8114V8.88239L70.3777 16.1354H71.6054L75.1567 8.88239V17.8357H76.7534V5.9455H74.8818L70.9916 13.9793Z" fill="var(--fill-0, black)"/>
<path id="Vector_8" d="M79.5931 9.40923H77.9963V17.8355H79.5931V9.40923Z" fill="var(--fill-0, black)"/>
<path id="Vector_9" d="M78.7869 5.60412C78.1882 5.60412 77.7362 6.04406 77.7362 6.65839C77.7362 7.27272 78.1882 7.72851 78.7869 7.72851C79.4008 7.72851 79.8527 7.26876 79.8527 6.65839C79.8527 6.04803 79.4008 5.60412 78.7869 5.60412Z" fill="var(--fill-0, black)"/>
<path id="Vector_10" d="M85.1291 9.20719C83.8864 9.20719 82.8846 9.85323 82.3687 10.8877L82.2557 9.40933H80.836V17.8355H82.4365V13.4877C82.4365 11.6526 83.3893 10.6499 84.696 10.6499C85.9877 10.6499 86.6506 11.4822 86.6506 13.1468V17.8355H88.2322V12.9764C88.2285 10.4477 87.0497 9.20719 85.1291 9.20719Z" fill="var(--fill-0, black)"/>
<path id="Vector_11" d="M95.9032 5.56929V10.6979C95.3534 9.73087 94.3554 9.16807 93.0637 9.16807C90.7062 9.16807 89.1095 11.019 89.1095 13.5675C89.1095 16.1159 90.7062 18.0025 93.0487 18.0025C94.4835 18.0025 95.3873 17.2733 95.907 16.4568L96.0689 17.8004H97.5037V5.56929H95.9032ZM93.3047 16.54C91.8021 16.54 90.7213 15.3351 90.7213 13.5833C90.7213 11.8156 91.8021 10.6266 93.3047 10.6266C94.8224 10.6266 95.8882 11.8156 95.8882 13.5833C95.8844 15.3351 94.8224 16.54 93.3047 16.54Z" fill="var(--fill-0, black)"/>
</g>
<defs>
<clipPath id="clip0_94_83">
<rect width="97.5" height="23.7805" fill="white"/>
</clipPath>
</defs>
</svg>
