<svg preserveAspectRatio="none" width="100%" height="100%" overflow="visible" style="display: block;" viewBox="0 0 509 23" fill="none" xmlns="http://www.w3.org/2000/svg">
<g id="row 1">
<g id="Group 80">
<path id="Vector" fill-rule="evenodd" clip-rule="evenodd" d="M41.3263 5.36405H43.3236V7.52792H41.3263V5.36405ZM41.3263 8.46515H43.3236V18.7077H41.3263V8.46515ZM45.0321 5.36405H47.0294V12.4531L53.9226 6.91925H56.6892L49.4521 12.617L56.885 18.7077H53.987L47.0281 13.0757V18.7077H45.0301V5.36405H45.0315H45.0321ZM27.2147 18.709V5.36405H34.3867C39.2182 5.36405 39.7393 8.37024 39.7393 9.66192C39.7393 10.9536 39.2182 13.9605 34.3853 13.9605H29.212V18.7097H27.2147V18.709ZM29.212 11.9791H34.0262C36.528 11.9791 37.5953 11.2862 37.5953 9.66192C37.5953 8.03769 36.528 7.34472 34.0262 7.34472H29.212V11.9791ZM62.2409 18.8796C60.4686 18.8796 59.0568 18.6174 58.2643 18.1409C57.3788 17.6085 56.9487 16.7848 56.9487 15.6212C56.9487 12.6568 59.937 12.2692 64.8873 11.6287C65.5478 11.543 66.2241 11.4561 66.9357 11.3565C66.9357 9.47076 65.9035 8.80235 62.9903 8.80235C60.5788 8.80235 59.5035 9.51921 59.5035 11.1255H57.489C57.489 8.43993 59.5453 6.83628 62.9903 6.83628C67.0897 6.83628 68.9177 8.18438 68.9177 11.2078V16.3786C68.9177 17.7738 68.9993 18.6978 69 18.707H67.1839C67.1839 18.7017 67.1322 18.1986 67.1839 17.3855C66.6144 18.2783 64.6284 18.879 62.2415 18.879H62.2402L62.2409 18.8796ZM66.9357 13.1075C63.9494 13.4533 61.8473 13.7441 60.5967 14.1204C59.4358 14.4696 58.9632 14.8997 58.9632 15.6039C58.9632 17.0496 60.7793 17.2653 61.8612 17.2653C63.6281 17.2653 64.8209 17.0496 65.6148 16.587C66.5036 16.0692 66.9357 15.2044 66.9357 13.9439V13.1075Z" fill="var(--fill-0, black)"/>
<path id="Vector_2" fill-rule="evenodd" clip-rule="evenodd" d="M0.5488 17.8836H7.73903C7.62287 16.7137 6.78902 15.4318 4.75126 14.5589V14.4727C7.12671 15.2028 7.9813 16.4523 8.32895 17.8827H17.2002L15.7731 16.6581C16.6086 14.0296 19.9133 12.7875 19.9133 12.7875C19.7963 10.6792 18.7177 8.7145 15.1118 7.12312L6.90849 3.87067C7.18313 7.33801 8.41109 9.32599 11.491 9.81386V9.89849C9.35115 9.84538 7.86681 8.88956 7.11426 6.9215C0.579499 8.12126 -0.995283 13.1269 0.5488 17.8836Z" fill="var(--fill-0, black)"/>
</g>
<g id="Group 86">
<path id="Vector_3" d="M121.908 9.70579H123.497V11.6928C122.976 11.7921 122.429 11.7176 121.908 11.7425C121.858 11.9908 121.883 12.2392 121.858 12.4876C121.61 14.6236 120.765 17.1819 118.704 18.2002C117.015 19.0447 114.854 18.4983 114.159 16.6603C113.413 14.6733 115.276 12.2144 116.791 11.0719C118.306 9.92933 118.927 9.87966 120.144 9.65612C120.244 7.94233 118.927 6.7998 117.214 7.14753C114.332 7.74363 112.842 12.4379 110.259 13.8785C108.272 15.021 105.962 13.804 105.565 11.5934C105.167 9.38291 106.856 7.992 108.371 6.87432C109.886 5.75663 111.153 5.18536 111.476 4.04284C111.799 2.90031 111.575 3.27288 111.327 2.97483C110.954 2.47808 110.358 2.55259 109.837 2.8258C109.042 3.24804 108.496 4.11735 107.825 4.66378C106.732 5.55793 105.366 6.02984 104 5.48342V3.6206C104.422 3.71995 104.869 3.76963 105.292 3.71995C106.782 3.59576 107.775 1.88198 109.067 1.28587C110.607 0.565587 113.016 0.714613 113.389 2.70161C113.711 4.39057 112.569 5.78147 111.327 6.77497C110.085 7.76847 108.297 8.66262 107.924 9.73063C107.552 10.7986 107.85 11.196 108.52 11.5686C109.688 12.1895 110.855 10.898 111.526 10.1032C113.041 8.33973 114.804 5.2102 117.288 4.78796C119.772 4.36573 120.989 6.10435 121.585 8.01684C121.759 8.56327 121.808 9.10969 121.883 9.65612L121.908 9.70579ZM117.139 13.2327C116.493 13.9282 115.475 15.4929 116.444 16.2877C117.412 17.0825 118.654 15.8903 119.151 15.0459C119.648 14.2014 119.995 12.7856 120.095 11.6183C119.772 11.7425 119.424 11.7921 119.101 11.9163C118.455 12.1647 117.611 12.736 117.164 13.2327H117.139Z" fill="var(--fill-0, black)"/>
<path id="Vector_4" d="M130.551 3.99196V9.48105H136.761V3.99196H139.244V17.7271C139.12 17.6278 139.021 17.7271 138.897 17.7271C138.226 17.7519 137.58 17.7271 136.91 17.7271L136.785 17.6526V11.7909H130.576V17.6526L130.501 17.7271H128.192L128.117 17.6526V3.99196H130.601H130.551Z" fill="var(--fill-0, black)"/>
<path id="Vector_5" d="M154.768 7.27057C154.768 7.39476 154.644 7.69281 154.594 7.81699C154.222 8.51244 153.327 8.86017 152.557 8.83533C152.533 8.95952 152.582 8.93468 152.632 8.95952C153.402 9.53078 153.973 10.1517 154.048 11.1701C154.271 14.2499 151.489 14.995 148.956 14.7715C148.633 14.7467 148.559 14.6473 148.236 14.8709C147.913 15.0944 147.963 15.1689 147.987 15.4421C148.012 15.7153 148.36 15.8147 148.559 15.8644C149.676 16.0134 151.092 15.765 152.235 15.8644C153.65 15.9885 154.892 16.6592 155.016 18.1991C155.19 20.3103 153.601 21.3534 151.738 21.6763C150.198 21.9495 147.267 21.9744 146.025 20.9064C145.106 20.1364 145.057 18.9194 145.827 18.0252C146.596 17.1311 146.497 17.4788 146.87 17.2552C146.746 17.1807 146.596 17.1311 146.472 17.0566C146.224 16.9075 145.951 16.7337 145.802 16.4605C145.156 15.2931 146.373 14.3244 147.466 14.2002L146.994 13.8773C144.932 12.2381 145.628 9.33208 148.062 8.51244C149.229 8.11504 150.049 8.31374 151.191 8.23923C152.334 8.16472 152.284 7.79216 152.359 7.04703C152.433 6.30191 152.284 6.47577 152.433 6.30191H154.644L154.718 6.37642C154.718 6.64963 154.743 6.99736 154.718 7.24573L154.768 7.27057ZM149.726 9.77916C149.378 9.804 148.956 9.92818 148.683 10.1766C148.037 10.7478 148.037 12.0642 148.583 12.71C149.13 13.3558 150.844 13.4551 151.415 12.6851C151.986 11.9152 151.763 10.9217 151.365 10.3753C150.968 9.82883 150.272 9.72948 149.726 9.77916ZM150.397 17.752C149.85 17.752 149.229 17.752 148.683 17.8017C147.764 17.901 147.267 19.1429 148.012 19.7142C148.757 20.2854 150.173 20.2109 150.918 20.0867C151.663 19.9625 152.856 19.6148 152.707 18.522C152.557 17.4291 151.067 17.7272 150.372 17.7272L150.397 17.752Z" fill="var(--fill-0, black)"/>
<path id="Vector_6" d="M165.274 7.32024C165.274 7.44443 165.125 7.79216 165.051 7.91634C164.678 8.53728 163.759 8.86017 163.088 8.83533C163.064 8.95952 163.088 8.93468 163.163 8.95952C163.883 9.48111 164.479 10.102 164.579 11.0707C164.902 14.2251 162.07 15.0199 159.487 14.7715C156.904 14.5231 159.09 14.6473 158.767 14.8709C158.245 15.2434 158.543 15.765 159.09 15.8644C161.524 15.9637 165.945 15.0696 165.547 18.9194C165.274 21.726 161.275 22.0241 159.139 21.8005C157.997 21.6763 156.357 21.2541 155.935 20.0619C155.637 19.2174 156.01 18.2488 156.705 17.7023C157.401 17.1559 157.202 17.4291 157.425 17.2553C157.301 17.1559 157.152 17.1311 157.028 17.0566C156.432 16.7088 156.134 16.2618 156.233 15.5663C156.333 14.8709 157.376 14.2747 158.046 14.2251C157.922 14.076 157.699 13.9767 157.525 13.8525C155.538 12.2132 156.258 9.38176 158.593 8.53728C159.76 8.11504 160.605 8.33858 161.772 8.23923C162.939 8.13988 162.865 7.84183 162.939 7.09671C163.014 6.35158 162.865 6.50061 163.014 6.30191H165.224L165.299 6.37642C165.299 6.64963 165.324 7.04703 165.299 7.32024H165.274ZM160.307 9.77916C159.561 9.85367 158.99 10.1517 158.816 10.9217C158.618 11.6916 158.767 12.6355 159.512 13.0329C160.257 13.4303 161.126 13.3558 161.648 12.9832C162.393 12.4616 162.418 10.9962 161.871 10.3504C161.325 9.70465 160.853 9.72948 160.307 9.77916ZM160.952 17.752C160.381 17.752 159.735 17.752 159.189 17.8017C158.146 17.9259 157.748 19.3168 158.742 19.8384C159.735 20.3599 161.474 20.2358 162.368 19.8632C163.262 19.4906 163.188 19.3913 163.237 18.969C163.287 18.5468 163.163 18.0749 162.641 17.8762C162.12 17.6775 161.548 17.7272 160.977 17.752H160.952Z" fill="var(--fill-0, black)"/>
<path id="Vector_7" d="M211 3.99196V17.6526L210.925 17.7271H208.715L208.64 17.6526V16.5349C208.516 16.6343 208.417 16.7833 208.318 16.8826C206.38 18.9441 203.226 17.901 202.232 15.4172C201.239 12.9335 201.686 11.8903 202.307 10.4746C203.375 8.06532 206.529 7.27052 208.367 9.33203C208.417 9.40654 208.467 9.50589 208.541 9.55557C208.616 9.60524 208.64 9.50589 208.64 9.50589V3.99196H211ZM206.032 10.1517C204.12 10.4249 203.921 13.157 204.468 14.5976C205.263 16.6094 207.746 16.4356 208.442 14.4237C209.137 12.4119 208.491 9.80394 206.032 10.1517Z" fill="var(--fill-0, black)"/>
<path id="Vector_8" d="M189.813 13.728C189.813 14.5477 190.335 15.4418 191.055 15.8144C191.776 16.1869 192.943 16.1124 193.638 15.4915C194.334 14.8705 194.085 14.8209 194.309 14.498L196.147 15.4666C195.675 16.6092 194.657 17.5033 193.465 17.851C190.732 18.621 187.951 17.1804 187.454 14.3241C186.957 11.4678 187.826 9.43113 190.136 8.4873C192.446 7.54348 194.16 8.0899 195.303 9.4808C196.445 10.8717 196.395 12.2378 196.296 13.5542C196.197 14.8705 196.296 13.7032 196.222 13.7529H189.813V13.728ZM193.837 12.0639C193.837 11.0207 193.365 10.0024 192.223 9.92788C191.08 9.85337 190.037 10.673 189.888 12.0639H193.862H193.837Z" fill="var(--fill-0, black)"/>
<path id="Vector_9" d="M165.821 15.2685L167.832 14.6724H168.056C168.131 15.3926 168.776 16.0384 169.472 16.1874C170.167 16.3365 170.589 16.262 171.037 16.0633C171.657 15.7404 171.732 14.8214 171.161 14.4488C170.589 14.0763 169.646 13.9521 168.925 13.7782C167.758 13.4802 166.342 12.8592 166.144 11.4932C165.945 10.0277 166.665 8.88521 168.031 8.4133C169.372 7.96622 171.136 8.06557 172.378 8.78586C172.974 9.13359 173.62 9.82904 173.843 10.4748C174.067 11.1206 173.918 10.5245 173.843 10.599L171.881 11.2945C171.831 11.2945 171.782 11.2945 171.732 11.2696C171.682 11.2448 171.508 10.8225 171.409 10.7232C170.887 10.0774 170.068 9.82904 169.248 10.0029C168.429 10.1768 168.205 10.748 168.553 11.3193C168.9 11.8906 170.565 12.1389 171.235 12.3128C172.8 12.735 174.067 13.5795 173.868 15.3926C173.57 18.4477 168.776 18.7209 166.864 17.1313C164.951 15.5417 165.92 16.0136 165.796 15.3181L165.821 15.2685Z" fill="var(--fill-0, black)"/>
<path id="Vector_10" d="M176.724 6.15309C176.724 6.00406 176.824 5.70601 176.873 5.53215C177.445 3.52031 179.829 3.42096 181.518 4.0419L181.096 5.90471L181.046 5.95439C180.972 5.90471 180.897 5.87987 180.822 5.85504C180.425 5.75569 179.953 5.70601 179.556 5.85504C179.158 6.00406 179.134 6.27727 179.034 6.64984V8.43814H181.22L181.294 8.51265V10.3506H179.084V17.6529C179.034 17.6529 178.96 17.7025 178.935 17.7025H176.799L176.724 17.628V10.3506H174.861V8.51265L174.936 8.43814H176.724V6.15309Z" fill="var(--fill-0, black)"/>
<path id="Vector_11" d="M200.394 3.99196V17.6526L200.32 17.7271H198.035V3.99196H200.394Z" fill="var(--fill-0, black)"/>
<path id="Vector_12" d="M185.517 8.215V17.6533L185.442 17.7278C185.343 17.6284 185.243 17.7278 185.219 17.7278H183.182L183.107 17.6533V8.215H185.542H185.517Z" fill="var(--fill-0, black)"/>
<path id="Vector_13" d="M143.864 8.215V17.6781C143.814 17.6781 143.74 17.7278 143.715 17.7278H141.579L141.505 17.6533V8.215H143.864Z" fill="var(--fill-0, black)"/>
<path id="Vector_14" d="M142.349 3.99221C143.094 3.86802 143.864 4.26542 144.063 5.01055C144.262 5.75567 143.914 6.42629 143.268 6.72434C142.622 7.02239 141.679 6.72434 141.381 6.00405C141.232 5.65632 141.207 5.38311 141.306 5.03538C141.405 4.68766 141.852 4.09156 142.374 3.99221H142.349Z" fill="var(--fill-0, black)"/>
<path id="Vector_15" d="M185.343 6.45218C184.076 7.69406 182.064 5.9306 183.207 4.51486C184.3 3.17363 186.386 4.61421 185.591 6.1293C185.566 6.17897 185.368 6.42735 185.343 6.45218Z" fill="var(--fill-0, black)"/>
</g>
<path id="Vector_16" fill-rule="evenodd" clip-rule="evenodd" d="M267.249 9.31098C267.507 8.54543 267.597 7.73308 267.511 6.92968C267.426 6.12628 267.168 5.35085 266.755 4.65661C265.496 2.49539 262.968 1.38273 260.499 1.90597C259.952 1.30041 259.283 0.817512 258.536 0.489036C257.789 0.16056 256.981 -0.00604919 256.165 0.000167794C253.641 -0.00500258 251.401 1.59885 250.624 3.96895C249.826 4.12874 249.071 4.45644 248.409 4.93031C247.747 5.40418 247.193 6.01339 246.785 6.71752C246.167 7.76634 245.903 8.98596 246.032 10.1963C246.16 11.4066 246.675 12.5435 247.499 13.439C247.241 14.2046 247.151 15.0171 247.236 15.8207C247.321 16.6243 247.579 17.4 247.992 18.0944C249.251 20.2556 251.779 21.3673 254.249 20.8451C254.795 21.4505 255.464 21.9333 256.211 22.2616C256.958 22.5899 257.766 22.7563 258.581 22.7498C261.108 22.756 263.348 21.1511 264.125 18.779C264.924 18.6192 265.68 18.2913 266.342 17.8171C267.004 17.3428 267.558 16.7331 267.967 16.0283C268.583 14.9796 268.846 13.7605 268.717 12.5509C268.588 11.3412 268.074 10.2051 267.25 9.30995L267.249 9.31098ZM258.582 21.2628C257.574 21.2652 256.596 20.9164 255.816 20.2763C255.851 20.2577 255.912 20.2246 255.953 20.1998L260.544 17.5836C260.659 17.5196 260.754 17.4261 260.82 17.3128C260.886 17.1995 260.921 17.0706 260.92 16.9394V10.5529L262.861 11.6583C262.882 11.6687 262.896 11.6883 262.899 11.71V16.9993C262.896 19.3508 260.965 21.2576 258.582 21.2628ZM249.3 17.3519C248.793 16.4911 248.611 15.4781 248.785 14.4948C248.818 14.5155 248.878 14.5517 248.92 14.5755L253.511 17.1917C253.744 17.3261 254.033 17.3261 254.266 17.1917L259.871 13.9984V16.2093C259.871 16.2206 259.869 16.2319 259.864 16.2422C259.859 16.2525 259.852 16.2614 259.843 16.2682L255.202 18.9113C253.135 20.086 250.495 19.387 249.301 17.3499L249.3 17.3519ZM248.091 7.46205C248.599 6.5955 249.395 5.93462 250.34 5.59451L250.338 5.75066V10.9831C250.337 11.1145 250.372 11.2436 250.438 11.3571C250.504 11.4706 250.599 11.5642 250.714 11.6283L256.319 14.8205L254.379 15.927C254.369 15.9331 254.358 15.9368 254.347 15.9377C254.336 15.9386 254.324 15.9367 254.314 15.9322L249.672 13.286C247.609 12.1071 246.902 9.50332 248.09 7.46412L248.091 7.46205ZM264.033 11.1227L258.428 7.92946L260.368 6.82506C260.378 6.81874 260.389 6.81487 260.4 6.81378C260.411 6.8127 260.423 6.81444 260.433 6.81886L265.075 9.46299C267.141 10.6418 267.85 13.2498 266.656 15.2879C266.148 16.1539 265.353 16.8149 264.408 17.1565V11.7679C264.409 11.6368 264.375 11.5079 264.309 11.3946C264.243 11.2813 264.147 11.1878 264.033 11.1237V11.1227ZM265.964 8.25519C265.919 8.22773 265.873 8.20084 265.827 8.17453L261.236 5.55832C261.121 5.49236 260.991 5.45764 260.859 5.45764C260.727 5.45764 260.597 5.49236 260.482 5.55832L254.877 8.75154V6.54069C254.877 6.52934 254.879 6.51805 254.884 6.50779C254.889 6.49752 254.896 6.48859 254.905 6.48175L259.545 3.83969C261.613 2.66395 264.255 3.36401 265.447 5.40424C265.95 6.26563 266.134 7.27489 265.964 8.25519ZM253.823 12.195L251.882 11.0906C251.871 11.0857 251.863 11.0782 251.856 11.069C251.85 11.0598 251.846 11.0491 251.844 11.0379V5.74859C251.845 3.394 253.781 1.48613 256.168 1.4882C257.177 1.4882 258.153 1.83772 258.93 2.47471C258.895 2.49332 258.835 2.52641 258.794 2.5502L254.203 5.16641C254.088 5.23022 253.993 5.32365 253.926 5.43696C253.86 5.55027 253.825 5.67931 253.826 5.81064L253.823 12.194V12.195ZM254.877 9.95314L257.374 8.53129L259.87 9.95314V12.7968L257.374 14.2187L254.876 12.7968V9.95314H254.877Z" fill="var(--fill-0, black)"/>
<g id="RAY3">
<path id="Vector_17" d="M358.194 18.375C353.351 18.375 351.128 16.5324 350.976 13.702H354.889C355.022 14.8418 355.858 15.6586 358.005 15.6586C359.885 15.6586 360.778 15.0317 360.778 13.9679C360.778 12.9992 359.885 12.5432 358.156 12.5432H356.58V9.90281H358.061C359.752 9.90281 360.607 9.40892 360.607 8.47812C360.607 7.6423 359.809 7.07242 358.137 7.07242C356.504 7.07242 355.535 7.73728 355.307 8.85804H351.451C351.679 6.19861 354.053 4.375 358.327 4.375C362.336 4.375 364.729 5.79969 364.729 8.06021C364.729 9.57988 363.722 10.5867 362.013 11.0236C364.007 11.3655 365.204 12.4483 365.204 14.0629C365.204 16.6844 362.678 18.375 358.194 18.375Z" fill="var(--fill-0, black)"/>
<path id="Vector_18" d="M340.474 18.1473V12.3915L334.49 4.56521H339.334L342.867 9.20022L346.305 4.56521H350.579L344.881 12.3915V18.1473H340.474Z" fill="var(--fill-0, black)"/>
<path id="Vector_19" d="M318.985 18.1473L324.969 4.56521H330.649L336.575 18.1473H331.94L330.896 15.6018H324.152L323.069 18.1473H318.985ZM327.552 7.52858L325.292 12.9044H329.775L327.552 7.52858Z" fill="var(--fill-0, black)"/>
<path id="Vector_20" d="M303.749 18.1473V4.56521H311.252C315.375 4.56521 317.711 5.9899 317.711 8.89628V8.97227C317.711 11.1188 316.533 12.1446 314.786 12.8284L318.832 18.1473H314.007L310.759 13.9302H308.118V18.1473H303.749ZM308.118 10.9858H310.986C312.506 10.9858 313.399 10.435 313.399 9.21921V9.14323C313.399 7.8705 312.449 7.4146 311.024 7.4146H308.118V10.9858Z" fill="var(--fill-0, black)"/>
</g>
<g id="elevenlabs-logo-black 1" clip-path="url(#clip0_94_127)">
<path id="Vector_21" d="M439.117 7.80013H436.327L439.698 18.1955H442.7L446.07 7.80013H443.281L441.171 15.6307L439.117 7.80013Z" fill="var(--fill-0, black)"/>
<path id="Vector_22" d="M400.204 4.32166H403.09V18.1951H400.204V4.32166Z" fill="var(--fill-0, black)"/>
<path id="Vector_23" d="M405.938 4.32166H408.824V18.1951H405.938V4.32166Z" fill="var(--fill-0, black)"/>
<path id="Vector_24" d="M411.67 4.32166H420.212V6.6339H414.556V9.9371H419.825V12.2493H414.556V15.8829H420.212V18.1951H411.67V4.32166Z" fill="var(--fill-0, black)"/>
<path id="Vector_25" d="M421.975 4.32166H424.706V18.1951H421.975V4.32166Z" fill="var(--fill-0, black)"/>
<path id="Vector_26" d="M426.352 12.9878C426.352 9.19884 428.231 7.56667 431.156 7.56667C434.081 7.56667 435.746 9.1794 435.746 13.0267V13.6484H429.045C429.141 15.9024 429.819 16.6602 431.117 16.6602C432.144 16.6602 432.783 16.0578 432.899 15.0086H435.63C435.456 17.3014 433.558 18.4284 431.117 18.4284C428.018 18.4284 426.352 16.7768 426.352 12.9878ZM433.054 11.8414C432.918 9.93719 432.26 9.31542 431.117 9.31542C429.974 9.31542 429.258 9.95663 429.064 11.8414H433.054Z" fill="var(--fill-0, black)"/>
<path id="Vector_27" d="M446.593 12.9878C446.593 9.19884 448.472 7.56667 451.397 7.56667C454.322 7.56667 455.988 9.1794 455.988 13.0267V13.6484H449.286C449.382 15.9024 450.06 16.6602 451.358 16.6602C452.385 16.6602 453.024 16.0578 453.14 15.0086H455.871C455.697 17.3014 453.799 18.4284 451.358 18.4284C448.259 18.4284 446.593 16.7768 446.593 12.9878ZM453.295 11.8414C453.159 9.93719 452.501 9.31542 451.358 9.31542C450.215 9.31542 449.499 9.95663 449.305 11.8414H453.295Z" fill="var(--fill-0, black)"/>
<path id="Vector_28" d="M468.926 4.32166H471.812V15.8829H477.235V18.1951H468.926V4.32166Z" fill="var(--fill-0, black)"/>
<path id="Vector_29" fill-rule="evenodd" clip-rule="evenodd" d="M477.913 12.9878C477.913 9.02396 479.734 7.56667 482.078 7.56667C483.24 7.56667 484.305 8.22731 484.731 8.92681V7.79983H487.521V18.1952H484.809V16.9711C484.402 17.7872 483.259 18.4284 482 18.4284C479.521 18.4284 477.913 16.8351 477.913 12.9878ZM482.794 9.60688C484.15 9.60688 484.886 10.6367 484.886 12.9878C484.886 15.3389 484.15 16.3882 482.794 16.3882C481.439 16.3882 480.664 15.3389 480.664 12.9878C480.664 10.6367 481.439 9.60688 482.794 9.60688Z" fill="var(--fill-0, black)"/>
<path id="Vector_30" fill-rule="evenodd" clip-rule="evenodd" d="M492.343 16.971V18.1951H489.632V4.32166H492.363V8.92672C492.828 8.20778 493.912 7.56657 495.075 7.56657C497.36 7.56657 499.181 9.02386 499.181 12.9877C499.181 16.9516 497.399 18.4283 495.016 18.4283C493.758 18.4283 492.731 17.7871 492.343 16.971ZM494.3 9.62622C495.656 9.62622 496.43 10.6366 496.43 12.9877C496.43 15.3388 495.656 16.3881 494.3 16.3881C492.944 16.3881 492.208 15.3388 492.208 12.9877C492.208 10.6366 492.944 9.62622 494.3 9.62622Z" fill="var(--fill-0, black)"/>
<path id="Vector_31" d="M500.304 15.1058H503.035C503.074 16.1939 503.655 16.7185 504.682 16.7185C505.708 16.7185 506.29 16.2522 506.29 15.4361C506.29 14.6977 505.844 14.4257 504.876 14.1925L504.043 13.9788C501.68 13.3764 500.498 12.7352 500.498 10.7727C500.498 8.81023 502.319 7.56667 504.643 7.56667C506.967 7.56667 508.73 8.4799 508.808 10.6367H506.076C506.018 9.68461 505.437 9.27656 504.604 9.27656C503.772 9.27656 503.19 9.68461 503.19 10.4618C503.19 11.1808 503.655 11.4528 504.469 11.6471L505.321 11.8608C507.568 12.4243 508.982 12.9878 508.982 15.0863C508.982 17.1848 507.122 18.4284 504.604 18.4284C501.873 18.4284 500.362 17.3985 500.304 15.1058Z" fill="var(--fill-0, black)"/>
<path id="Vector_32" d="M460.404 12.0746C460.404 10.4424 461.178 9.54859 462.379 9.54859C463.367 9.54859 463.929 10.1704 463.929 11.5111V18.1952H466.66V11.0836C466.66 8.67421 465.304 7.56667 463.328 7.56667C461.992 7.56667 460.888 8.24673 460.404 9.14054V7.79983H457.634V18.1952H460.404V12.0746Z" fill="var(--fill-0, black)"/>
</g>
</g>
<defs>
<clipPath id="clip0_94_127">
<rect width="108.778" height="14.1066" fill="white" transform="translate(400.204 4.32166)"/>
</clipPath>
</defs>
</svg>
