<svg preserveAspectRatio="none" width="100%" height="100%" overflow="visible" style="display: block;" viewBox="0 0 83 22" fill="none" xmlns="http://www.w3.org/2000/svg">
<g id="Unknown-2 1" clip-path="url(#clip0_94_176)">
<path id="Vector" fill-rule="evenodd" clip-rule="evenodd" d="M18.2502 3.0585L18.3242 3.13059L18.3263 3.12853C19.7491 4.53465 19.3411 7.35993 17.2779 10.5628L21.3359 14.5587L21.1615 14.8931C20.4793 16.2027 19.5557 17.3761 18.4379 18.3535C16.9654 19.6477 15.1879 20.5596 13.2667 21.0064L13.197 21.0229L13.0973 21.0462L13.0254 21.062L12.8671 21.0964L12.736 21.1218L12.6376 21.1403C12.533 21.1609 12.4235 21.1801 12.3168 21.198L12.2275 21.211L12.1598 21.2193C12.0636 21.2321 11.9678 21.244 11.8725 21.255C10.273 21.432 8.65356 21.2551 7.13247 20.7371C5.61138 20.219 4.22709 19.373 3.08076 18.2608L3.01381 18.1969C1.58816 16.7908 1.992 13.9635 4.05793 10.7585L0 6.76261L0.17437 6.42824C0.854763 5.11771 1.77941 3.9448 2.90012 2.97062C4.0453 1.96834 5.37495 1.19132 6.81716 0.681559C7.15195 0.562781 7.50208 0.459107 7.84594 0.371225C8.12932 0.296466 8.41578 0.233473 8.70454 0.182415C8.80218 0.163191 8.91239 0.14328 9.0191 0.125429C10.6836 -0.129967 12.3857 0.00233548 13.9889 0.511716C15.592 1.0211 17.0515 1.89336 18.2502 3.0585ZM16.8783 3.23015H16.8741L16.8783 3.23221C15.4994 2.81202 13.3114 3.49105 10.9985 4.99123C12.7583 4.50856 14.4601 4.75848 15.5601 5.8419C16.6021 6.86971 16.8874 8.42962 16.4926 10.0685C16.474 10.1559 16.4507 10.2445 16.4228 10.3342C18.3109 7.52265 18.9149 4.89236 17.7195 3.71762C17.6998 3.69644 17.6789 3.67649 17.6567 3.65789L17.6476 3.64965L17.6344 3.63798L17.5946 3.60777C17.5774 3.59404 17.5595 3.58076 17.5409 3.56795L17.5116 3.54735C17.3204 3.40684 17.1062 3.29956 16.8783 3.23015ZM15.9318 9.55012C15.6884 10.9796 14.8856 12.4242 13.6685 13.6209C12.4549 14.8183 10.9846 15.6092 9.53035 15.8509C8.16957 16.0774 6.99571 15.7822 6.2264 15.027C5.45917 14.2711 5.15925 13.1197 5.38942 11.7733C5.63284 10.3452 6.43355 8.89993 7.64507 7.70459C7.64507 7.70459 7.64716 7.70459 7.65204 7.69773L7.65623 7.69086C8.87193 6.50171 10.3366 5.71282 11.7874 5.47389C13.1482 5.24732 14.3192 5.54118 15.0914 6.29779C15.8586 7.05303 16.1585 8.20649 15.9283 9.55081L15.9318 9.55012ZM3.60039 3.74165C2.67387 4.5482 1.89384 5.50435 1.29382 6.56899L1.28685 6.57105L4.80772 10.0287C5.09462 9.63091 5.40151 9.23773 5.7284 8.84912C5.84278 8.71455 5.96042 8.5777 6.08132 8.43855L6.12735 8.38706L6.29475 8.20305C6.29963 8.19893 6.30451 8.19001 6.30451 8.19001L6.3352 8.15568L6.35124 8.13714L6.37566 8.11105L6.43843 8.04239C6.48214 7.99296 6.52747 7.94421 6.57444 7.89615C6.57444 7.89134 6.58141 7.88448 6.58141 7.88448L6.65674 7.80346L6.71045 7.74854C6.71277 7.74487 6.71417 7.7435 6.71463 7.74442C6.71882 7.74075 6.72044 7.73847 6.71951 7.73755L6.72928 7.72519L6.73904 7.71352C6.74755 7.70709 6.75527 7.69972 6.76206 7.69155L6.77531 7.67782C6.80391 7.64967 6.83808 7.61671 6.86877 7.58376C6.88505 7.56407 6.90365 7.54439 6.92457 7.52471L6.95317 7.49587C6.95805 7.48901 6.9713 7.47596 6.9713 7.47596L7.02501 7.42378L7.12963 7.32217L7.1645 7.28578L7.20356 7.24527C7.95749 6.50057 8.76317 5.80842 9.61475 5.17386L9.72634 5.09353H9.72704V5.09284L9.72844 5.09215L9.84003 5.01114C9.96465 4.91914 10.0902 4.82919 10.2167 4.74131C10.3515 4.65068 10.4864 4.56143 10.6212 4.47355C12.45 3.2734 14.2411 2.55318 15.703 2.41037C13.7473 1.24879 11.4387 0.801582 9.18161 1.14706C9.08397 1.16217 8.9905 1.17796 8.89007 1.19787C8.8266 1.20885 8.7715 1.21984 8.7157 1.23082L8.68222 1.23769C8.16957 1.34158 7.66497 1.48084 7.17218 1.65444C5.85671 2.11802 4.64357 2.82666 3.60039 3.74165ZM3.79498 17.7534C3.99028 17.8999 4.21277 18.0111 4.46247 18.0871H4.45689C5.84487 18.5045 8.0245 17.8234 10.329 16.3274C8.57132 16.808 6.87296 16.5581 5.77303 15.4746C4.73588 14.4516 4.45061 12.8869 4.84329 11.248C4.86282 11.1606 4.88584 11.072 4.91234 10.9823C3.02497 13.7946 2.42234 16.4242 3.61643 17.5996C3.6434 17.6257 3.67223 17.652 3.70292 17.6786C3.73175 17.7042 3.7629 17.7291 3.79498 17.7534ZM20.04 14.753V14.7544C19.439 15.8175 18.6596 16.7727 17.7348 17.5797C16.3507 18.7895 14.6777 19.6342 12.872 20.0349L12.8497 20.0404L12.7897 20.0541C12.7219 20.0722 12.6532 20.0868 12.5839 20.0981C12.5388 20.1077 12.4928 20.1161 12.4458 20.1235C12.3486 20.142 12.2509 20.1581 12.1529 20.1715L12.0713 20.1853L11.9785 20.1969C11.9041 20.207 11.8278 20.2162 11.7497 20.2244C9.6202 20.4604 7.47101 19.9988 5.63493 18.911C7.04245 18.7743 8.75615 18.0981 10.5138 16.9796L10.6142 16.9151L10.7147 16.8499L10.8514 16.7592H10.8521L11.1164 16.5821C11.2443 16.4942 11.3698 16.4043 11.4931 16.3123C11.5702 16.2578 11.646 16.2035 11.7204 16.1495C12.5709 15.5131 13.3767 14.8208 14.1323 14.0774C14.1505 14.0591 14.1674 14.0413 14.1832 14.0239L14.2042 14.0005C14.2414 13.9662 14.2762 13.9326 14.3088 13.8996L14.3618 13.8474C14.3618 13.8474 14.3757 13.8337 14.3778 13.8268C14.3848 13.8209 14.3915 13.8145 14.3981 13.8076L14.4064 13.7987L14.4671 13.7396L14.5138 13.6916C14.5297 13.6769 14.5452 13.6614 14.5606 13.6449L14.5731 13.6312C14.58 13.6232 14.5877 13.6161 14.5961 13.6099L14.6066 13.5975L14.6164 13.5858C14.6164 13.5858 14.6233 13.579 14.6275 13.5769L14.6464 13.557L14.6652 13.5371L14.6833 13.5199C14.6638 13.5401 14.6452 13.5611 14.6275 13.5831L14.6708 13.5385L14.6715 13.5371C14.7017 13.5051 14.7317 13.4744 14.7614 13.4451C14.7614 13.4451 14.7614 13.4382 14.7684 13.4382C14.8093 13.3952 14.8491 13.3517 14.8877 13.3078L14.9665 13.2213C14.9769 13.2146 14.9853 13.2054 14.9909 13.1945L15.0356 13.1416L15.0467 13.1286C15.1011 13.0714 15.1544 13.0135 15.2064 12.9549L15.2608 12.8931C15.3483 12.7928 15.4352 12.6919 15.5217 12.5903L15.6263 12.4674L15.6591 12.4276C15.701 12.3759 15.7423 12.3255 15.7833 12.2765C15.8181 12.2353 15.8523 12.1932 15.8858 12.1502C15.9067 12.1227 15.9283 12.096 15.9506 12.0699C16.1529 11.8131 16.3475 11.5604 16.5351 11.3009L20.04 14.753ZM20.04 14.753C20.04 14.7507 20.0414 14.7489 20.0442 14.7475V14.7585L20.04 14.7544H20.0414L20.04 14.753ZM27.1668 4.36713H29.17V16.7599H27.1668V4.36713ZM40.4517 4.36713H38.5824V16.7599H40.4517V4.36713ZM81.1308 4.36713H83V16.7599H81.1308V4.36713ZM72.535 4.36713L67.6987 16.7599H69.7626L70.9762 13.6112H76.7757L77.9893 16.7592H80.0532L75.2168 4.36644L72.535 4.36713ZM71.6855 11.7678L73.8735 6.09319L76.0622 11.7678H71.6855ZM42.0622 6.86079H43.9314V16.7578H42.0622V6.86079ZM43.9314 4.36781H42.0622V5.92772H43.9314V4.36781ZM47.4118 8.04514C48.0096 7.38602 49.2232 6.85667 50.4235 6.85667C53.7408 6.85667 55.2194 8.99674 55.2194 11.6215V16.7578H53.3502V11.6222C53.3502 10.0088 52.4644 8.69739 50.381 8.69739C48.871 8.69739 47.5095 9.51442 47.4118 11.178V16.7558H45.5426V6.85873H47.4118V8.04514ZM61.5197 6.86079C62.732 6.86079 63.8465 7.3002 64.7233 8.04171V6.86079H66.5897V17.1664C66.5897 19.8166 64.4798 21.9711 61.8852 21.9711H61.3635C59.0814 21.9711 57.1786 20.3061 56.7497 18.1022H58.6747C59.0521 19.2797 60.1143 20.1303 61.3656 20.1303H61.8873C63.4539 20.1303 64.7254 18.8032 64.7254 17.1664V16.1557C63.8486 16.8938 62.7327 17.338 61.519 17.338C58.7201 17.338 56.4442 14.9872 56.4442 12.0987C56.4442 9.21027 58.7208 6.86079 61.5197 6.86079ZM61.519 15.4925C59.7495 15.4925 58.3106 13.9703 58.3106 12.0939C58.3106 10.2175 59.7495 8.69533 61.519 8.69533C63.2886 8.69533 64.7247 10.2195 64.7247 12.0939C64.7247 13.9683 63.2858 15.4925 61.5183 15.4925M34.7784 4.36781H37.2656L31.7046 10.4852L37.6388 16.7578H35.0616L29.1728 10.4859L34.7784 4.36781Z" fill="var(--fill-0, black)"/>
</g>
<defs>
<clipPath id="clip0_94_176">
<rect width="83" height="21.9706" fill="white"/>
</clipPath>
</defs>
</svg>
