<svg preserveAspectRatio="none" width="100%" height="100%" overflow="visible" style="display: block;" viewBox="0 0 76 21" fill="none" xmlns="http://www.w3.org/2000/svg">
<g id="recraft-text 1">
<path id="Vector" fill-rule="evenodd" clip-rule="evenodd" d="M74.4313 10.2437L71.9711 1.71287H63.6163L62.9271 4.08595C61.6659 2.63938 59.695 1.70774 57.4782 1.70774C56.1597 1.70774 55.0889 4.45485 55.0889 7.84325V8.18995L51.5203 1.71287H49.5716L46.027 14.0069H39.6746C43.466 13.9916 46.5333 11.2504 46.5333 7.87143C46.5333 4.49242 43.4489 1.73592 39.643 1.73592C38.3236 1.73592 37.2537 4.48303 37.2537 7.87143C37.2537 8.71939 37.3203 9.5272 37.4415 10.2624H36.4313V10.2505H35.048V10.2616C35.048 14.3092 33.9635 17.5892 32.6253 17.5892C31.2872 17.5892 30.2027 14.3084 30.2027 10.2616C30.2027 6.21395 31.2872 2.93314 32.6253 2.93314C33.5092 2.93314 34.282 4.36518 34.7055 6.50428H36.0428C35.4228 3.67947 34.1257 1.73507 32.6253 1.73507C29.5222 1.73507 26.8306 3.60945 25.4967 6.35058C24.8648 3.60945 23.5865 1.73507 22.1143 1.73507C18.7566 1.73507 15.8814 3.92882 14.6859 7.04055C14.2351 4.04069 11.3453 1.72568 7.84849 1.72568C6.52661 1.72568 5.45578 4.47363 5.45578 7.86204C5.45578 8.70999 5.52324 9.51696 5.64364 10.2522H3.30472L0.853933 18.777H7.85106V13.9975L10.5461 18.777H17.5714L15.4152 14.9514H15.4169C16.8515 17.2613 19.3151 18.7855 22.1134 18.7855H22.1151C23.5873 18.7855 24.8648 16.912 25.4976 14.1709C26.8314 16.912 29.5222 18.7855 32.6245 18.7864H32.6262L32.6586 18.7855H39.6464V14.0061L42.338 18.7864H49.3539L49.3411 18.7633H51.3845V15.1222H53.1411L54.1906 18.7642H60.9178L58.8547 15.0197H62.0032L60.9187 18.7633L70.7842 18.765L66.4086 3.60091L74.4313 10.2437ZM7.84935 12.8738C7.15766 12.8738 6.59748 10.6296 6.59748 7.86118C6.59748 5.09444 7.15766 2.84945 7.84935 2.84945C8.54103 2.84945 9.10121 5.09359 9.10121 7.86204C9.10121 10.6296 8.54103 12.8738 7.84935 12.8738ZM7.88094 13.9975C10.6306 13.9864 12.9994 12.545 14.0967 10.4674C14.1249 11.7329 14.4127 12.9293 14.9054 14.001H14.8798L14.8772 13.9975H7.88094ZM22.1151 2.93228C23.3252 2.93228 24.3268 5.61619 24.5079 9.12329H19.7224C19.9026 5.61619 20.9051 2.93228 22.1151 2.93228ZM24.197 14.0078C23.7743 16.152 23.0007 17.5892 22.1151 17.5892C20.777 17.5892 19.6934 14.3092 19.6925 10.2624H24.6061C24.6061 11.6057 24.899 12.8763 25.4199 14.0069L24.197 14.0078ZM39.6447 12.8832C38.9538 12.8832 38.3945 10.639 38.3945 7.87058C38.3945 5.10383 38.9547 2.8597 39.6447 2.8597C40.3346 2.8597 40.894 5.10383 40.894 7.87143C40.894 10.639 40.3346 12.8832 39.6447 12.8832ZM51.3845 13.9839V9.02424L52.814 13.9839H51.3845ZM60.9708 10.2351H56.2186L56.2298 7.8441C56.2298 5.07565 56.7899 2.83152 57.4799 2.83152C58.1699 2.83152 58.7301 5.07565 58.7301 7.8441H64.0817L62.5659 13.0736L60.9691 10.236H60.9708V10.2351ZM64.3131 7.04653C64.1768 6.13552 63.8216 5.27113 63.2781 4.52743L65.313 3.59408L64.3131 7.04738V7.04653Z" fill="var(--fill-0, black)"/>
</g>
</svg>
