<svg preserveAspectRatio="none" width="100%" height="100%" overflow="visible" style="display: block;" viewBox="0 0 88 18" fill="none" xmlns="http://www.w3.org/2000/svg">
<g id="runway-seeklogo-2 1" clip-path="url(#clip0_94_118)">
<path id="Vector" d="M23.9999 4.08231H26.4317L26.6596 5.40896C26.9012 4.91575 27.2732 4.50596 27.7311 4.22861C28.189 3.95125 28.7134 3.81806 29.2416 3.84497C29.7302 3.84914 30.2137 3.95013 30.6666 4.14264L30.0956 7.21055C29.664 6.94447 29.1712 6.80723 28.6706 6.81369C27.6838 6.81369 26.885 7.50821 26.885 9.05127V13.9806H23.9999V4.08231Z" fill="var(--fill-0, black)"/>
<path id="Vector_2" d="M31.6667 10.2945V4.0193H34.5944V9.72019C34.5671 9.94753 34.5876 10.1784 34.6545 10.3965C34.7215 10.6146 34.8332 10.8147 34.9818 10.9827C35.1304 11.1507 35.3124 11.2824 35.5148 11.3687C35.7173 11.455 35.9353 11.4938 36.1535 11.4822C37.0981 11.4822 37.9056 10.7304 37.9056 9.06767V4.0193H40.8333V13.9176H38.388L38.0605 12.6124C37.7108 13.1091 37.2512 13.509 36.7212 13.7778C36.1912 14.0466 35.6068 14.1761 35.0185 14.1552C33.1089 14.1552 31.6667 12.8864 31.6667 10.2945Z" fill="var(--fill-0, black)"/>
<path id="Vector_3" d="M42.3358 4.08181H44.7513L45.0749 5.387C45.4135 4.89209 45.8632 4.49237 46.3843 4.22327C46.9054 3.95418 47.4818 3.824 48.0623 3.84428C49.9261 3.84428 51.3333 5.092 51.3333 7.68425V13.9801H48.4411V8.31838C48.4411 7.15172 47.8689 6.51726 46.9185 6.51726C46.0432 6.51726 45.2254 7.26898 45.2254 8.9709V13.9801H42.3333V4.08181H42.3358Z" fill="var(--fill-0, black)"/>
<path id="Vector_4" d="M51.9999 4.0193H54.8928L56.6015 10.7731L58.1222 6.33102L57.3719 4.01937H60.2448L62.1046 10.7731L63.7562 4.0193H66.6663L63.5858 13.9804H60.6186L59.3431 10.0165L58.0281 13.9804H55.0784L51.9999 4.0193Z" fill="var(--fill-0, black)"/>
<path id="Vector_5" d="M66.8335 8.9999C66.8335 5.59592 69.1758 3.8446 71.3318 3.8446C71.8379 3.81917 72.3435 3.90584 72.8155 4.09895C73.2876 4.29206 73.7155 4.58729 74.0715 4.9654L74.3353 4.08067H77V13.9192H74.4676L74.0715 12.9566C73.7087 13.3695 73.2622 13.6916 72.7647 13.899C72.2673 14.1065 71.7317 14.1941 71.1976 14.1553C68.8744 14.1553 66.8335 12.1471 66.8335 8.9999ZM74.1859 8.9999C74.216 8.67374 74.1807 8.34458 74.0823 8.03356C73.9839 7.72254 73.8246 7.43653 73.6145 7.19392C73.4044 6.9513 73.1483 6.75743 72.8625 6.62477C72.5768 6.4921 72.2677 6.42357 71.9552 6.42357C71.6427 6.42357 71.3336 6.4921 71.0479 6.62477C70.7621 6.75743 70.506 6.9513 70.2959 7.19392C70.0858 7.43653 69.9265 7.72254 69.8281 8.03356C69.7297 8.34458 69.6944 8.67374 69.7245 8.9999C69.694 9.32629 69.729 9.65576 69.8272 9.96713C69.9254 10.2785 70.0847 10.5649 70.2948 10.8078C70.5049 11.0507 70.7612 11.2449 71.0472 11.3777C71.3331 11.5106 71.6424 11.5793 71.9552 11.5793C72.268 11.5793 72.5773 11.5106 72.8632 11.3777C73.1492 11.2449 73.4055 11.0507 73.6156 10.8078C73.8257 10.5649 73.985 10.2785 74.0832 9.96713C74.1814 9.65576 74.2164 9.32629 74.1859 8.9999Z" fill="var(--fill-0, black)"/>
<path id="Vector_6" d="M80.0264 17.9998L81.6286 13.4669L77.8329 4.0193H80.942L83.0598 10.1904L84.9666 4.0193H88L82.9842 17.9998H80.0264Z" fill="var(--fill-0, black)"/>
<path id="Vector_7" d="M13.1603 17.9885C11.0805 18.1879 9.34151 15.6324 8.00843 14.3363C7.33435 19.4289 -0.00502025 18.9462 2.57689e-06 13.7801C0.0024822 11.6103 2.57689e-06 6.30782 2.57689e-06 4.2063C-0.000518755 3.65312 0.103144 3.10526 0.305043 2.59419C0.506941 2.08311 0.803102 1.61886 1.17653 1.22809C1.54996 0.837317 1.9933 0.527709 2.48112 0.31703C2.96895 0.106352 3.49164 -0.00124917 4.01922 0.00040118C6.10656 0.00306783 11.1331 -0.0021988 13.1603 0.00040118C18.0917 0.00040118 18.5602 7.69314 13.6865 8.38574L15.9993 10.8075C18.54 13.3129 16.6333 18.0987 13.1603 17.9885ZM12.0402 14.9582C13.4735 16.5061 15.7613 14.108 14.2854 12.6073L10.2761 8.40941H8.03348V10.7602L11.499 14.3888L12.0402 14.9582ZM2.42806 13.7827C2.39551 15.9341 5.63549 15.942 5.60287 13.7827V4.2063C5.60053 3.9488 5.54158 3.69533 5.43061 3.4656C5.31963 3.23588 5.15963 3.03608 4.96303 2.88174C4.76643 2.7274 4.53854 2.62268 4.29706 2.57572C4.05558 2.52876 3.80703 2.54083 3.57073 2.61098C3.52813 2.62432 3.48807 2.63725 3.45043 2.65298C3.14614 2.77616 2.88509 2.99401 2.70233 3.2773C2.51957 3.56058 2.42387 3.89572 2.42806 4.2377V13.7827ZM13.1604 5.86702C15.2204 5.90116 15.2177 2.50872 13.1604 2.54278H7.71539C8.12866 3.45611 8.02363 4.8779 8.03113 5.86702H13.1604Z" fill="var(--fill-0, black)"/>
</g>
<defs>
<clipPath id="clip0_94_118">
<rect width="88" height="18" fill="white"/>
</clipPath>
</defs>
</svg>
