<?xml version="1.0" encoding="utf-8" standalone="yes"?>
<!DOCTYPE svg PUBLIC "-//W3C//DTD SVG 1.1//EN" "http://www.w3.org/Graphics/SVG/1.1/DTD/svg11.dtd">
<svg width="1038" height="938" viewBox="0 0 1038 938" style="fill:none;stroke:none;fill-rule:evenodd;clip-rule:evenodd;stroke-linecap:round;stroke-linejoin:round;stroke-miterlimit:1.5;" version="1.1" xmlns="http://www.w3.org/2000/svg" xmlns:xlink="http://www.w3.org/1999/xlink"><style class="text-font-style fontImports" data-font-family="Roboto">@import url('https://fonts.googleapis.com/css2?family=Roboto:wght@400;700&amp;display=block');</style><g id="items" style="isolation: isolate"><g id="blend" style="mix-blend-mode: normal"><g id="g-root-0c.g-0c_fr_1ums0lf1ekd8g6-fill" data-item-order="-746342" transform="translate(567.1099853515625, 195.21002197265625)"></g><g id="g-root-0b.g-0b_fr_qpnfnn1ekd6vc-fill" data-item-order="-746338" transform="translate(207.52999877929688, 767.4599609375)"></g><g id="g-root-0a.g-0a_fr_m9txj71ekd7nm-fill" data-item-order="-746334" transform="translate(211.41000366210938, 174.11798095703125)"></g><g id="g-root-1.g-1_fr_m9txj71ekd7no-fill" data-item-order="-746330" transform="translate(207.52999877929688, 697.25)"></g><g id="g-root-2.g-2_fr_de6xab1ekd8ge-fill" data-item-order="-746326" transform="translate(252.45001220703125, 627.0400390625)"></g><g id="g-root-3.g-3_fr_hu0fer1ekd8g0-fill" data-item-order="-746322" transform="translate(297.3699951171875, 556.820068359375)"></g><g id="g-root-4.g-4_fr_8ydf5v1ekd98q-fill" data-item-order="-746318" transform="translate(342.29998779296875, 486.6099853515625)"></g><g id="g-root-5.g-5_fr_4j6e4j1ekd6v8-fill" data-item-order="-746314" transform="translate(387.2200012207031, 416.4000244140625)"></g><g id="g-root-6.g-6_fr_4j6e4j1ekd6va-fill" data-item-order="-746310" transform="translate(432.1400146484375, 346.19000244140625)"></g><g id="g-root-7.g-7_fr_3cw031ekd7nk-fill" data-item-order="-746306" transform="translate(477.05999755859375, 275.969970703125)"></g><g id="g-root-8.g-8_fr_3cw031ekd7nm-fill" data-item-order="-746302" transform="translate(522.010009765625, 205.6500244140625)"></g><g id="g-root-tx_bria_1uuw9vn1ekagb3-fill" data-item-order="0" transform="translate(675, 363)"><g id="tx_bria_1uuw9vn1ekagb3-fill" stroke="none" fill="#f366bb"><g><text style="font: bold 20px Roboto, sans-serif; white-space: pre;" font-weight="bold" font-size="20px" font-family="Roboto, sans-serif"><tspan x="12" y="33.5" dominant-baseline="ideographic">Bria</tspan></text></g></g></g><g id="g-root-robo_qoekn71ek8zda-fill" data-item-order="0" transform="translate(501, 390)"></g><g id="g-root-tx_aplatfor_zjf3sz1ek91qd-fill" data-item-order="0" transform="translate(195, 375)"><g id="tx_aplatfor_zjf3sz1ek91qd-fill" stroke="none" fill="#f4f4f4"><g><text style="font: 15px Roboto, sans-serif; white-space: pre;" font-size="15px" font-family="Roboto, sans-serif"><tspan x="61.13" y="27.5" dominant-baseline="ideographic">Generate Emphatic </tspan><tspan x="22.98" y="45.5" dominant-baseline="ideographic">Narrations for Your Story</tspan></text></g></g></g><g id="g-root-3_93db0j1ek1zwj-fill" data-item-order="0" transform="translate(455, 460)"></g><g id="g-root-tx_kling_1ly0bgj1ek0lja-fill" data-item-order="0" transform="translate(111, 483)"><g id="tx_kling_1ly0bgj1ek0lja-fill" stroke="none" fill="#ffe711"><g><text style="font: bold 20px Roboto, sans-serif; white-space: pre;" font-weight="bold" font-size="20px" font-family="Roboto, sans-serif"><tspan x="21.8" y="33.5" dominant-baseline="ideographic">Kling AI</tspan></text></g></g></g><g id="g-root-tx_elevenla_13z8lxf1ek90y4-fill" data-item-order="0" transform="translate(195, 339)"><g id="tx_elevenla_13z8lxf1ek90y4-fill" stroke="none" fill="#fb6762"><g><text style="font: bold 20px Roboto, sans-serif; white-space: pre;" font-weight="bold" font-size="20px" font-family="Roboto, sans-serif"><tspan x="13.72" y="33.5" dominant-baseline="ideographic">ElevenLabs</tspan></text></g></g></g><g id="g-root-tx_atoolfor_1d2db7n1ek0mbz-fill" data-item-order="0" transform="translate(111, 519)"><g id="tx_atoolfor_1d2db7n1ek0mbz-fill" stroke="none" fill="#f4f4f4"><g><text style="font: 15px Roboto, sans-serif; white-space: pre;" font-size="15px" font-family="Roboto, sans-serif"><tspan x="12.5" y="27.5" dominant-baseline="ideographic">Generate High Quality Brand </tspan><tspan x="23.89" y="45.5" dominant-baseline="ideographic">Content with Kolors Try-on</tspan></text></g></g></g><g id="g-root-tx_easel_dj6t4z1ek1z49-fill" data-item-order="0" transform="translate(579, 507)"><g id="tx_easel_dj6t4z1ek1z49-fill" stroke="none" fill="#f79438"><g><text style="font: bold 20px Roboto, sans-serif; white-space: pre;" font-weight="bold" font-size="20px" font-family="Roboto, sans-serif"><tspan x="12" y="33.5" dominant-baseline="ideographic">Easel</tspan></text></g></g></g><g id="g-root-edit_18n6a6b1ek0jyg-fill" data-item-order="0" transform="translate(411, 530)"></g><g id="g-root-tx_adigital_93db0j1ek1zwi-fill" data-item-order="0" transform="translate(579, 543)"><g id="tx_adigital_93db0j1ek1zwi-fill" stroke="none" fill="#f4f4f4"><g><text style="font: 15px Roboto, sans-serif; white-space: pre;" font-size="15px" font-family="Roboto, sans-serif"><tspan x="12" y="27.5" dominant-baseline="ideographic">Face Swap for more </tspan><tspan x="12" y="45.5" dominant-baseline="ideographic">Character Consistency</tspan></text></g></g></g><g id="g-root-pen_1q5pngj1ekbsi1-fill" data-item-order="0" transform="translate(545, 320)"></g><g id="g-root-codi_1cu95371ek0mit-fill" data-item-order="0" transform="translate(365, 600)"></g><g id="g-root-tx_recraftv_v6pvyb1ekemfc-fill" data-item-order="0" transform="translate(15, 627)"><g id="tx_recraftv_v6pvyb1ekemfc-fill" stroke="none" fill="#43dd93"><g><text style="font: bold 20px Roboto, sans-serif; white-space: pre;" font-weight="bold" font-size="20px" font-family="Roboto, sans-serif"><tspan x="20.81" y="33.5" dominant-baseline="ideographic">Recraft V3</tspan></text></g></g></g><g id="g-root-spar_92qx371ejuxok-fill" data-item-order="0" transform="translate(589, 250)"></g><g id="g-root-tx_aplatfor_qqwdtv1eken7l-fill" data-item-order="0" transform="translate(15, 663)"><g id="tx_aplatfor_qqwdtv1eken7l-fill" stroke="none" fill="#f4f4f4"><g><text style="font: 15px Roboto, sans-serif; white-space: pre;" font-size="15px" font-family="Roboto, sans-serif"><tspan x="18.16" y="27.5" dominant-baseline="ideographic">Edit and Stylize your </tspan><tspan x="69.34" y="45.5" dominant-baseline="ideographic">generations.</tspan></text></g></g></g><g id="g-root-tx_ideogram_1q5pngj1ek0kxv-fill" data-item-order="0" transform="translate(495, 651)"><g id="tx_ideogram_1q5pngj1ek0kxv-fill" stroke="none" fill="#a6da37"><g><text style="font: bold 20px Roboto, sans-serif; white-space: pre;" font-weight="bold" font-size="20px" font-family="Roboto, sans-serif"><tspan x="12" y="33.5" dominant-baseline="ideographic">Ideogram</tspan></text></g></g></g><g id="g-root-cap_dg2cjn1ekelmq-fill" data-item-order="0" transform="translate(321, 670)"></g><g id="g-root-tx_atoolfor_dhxy4j1ejv023-fill" data-item-order="0" transform="translate(291, 231)"><g id="tx_atoolfor_dhxy4j1ejv023-fill" stroke="none" fill="#f4f4f4"><g><text style="font: 15px Roboto, sans-serif; white-space: pre;" font-size="15px" font-family="Roboto, sans-serif"><tspan x="16.09" y="27.5" dominant-baseline="ideographic">Powerful Image &amp; Video </tspan><tspan x="95.5" y="45.5" dominant-baseline="ideographic">Generations</tspan></text></g></g></g><g id="g-root-tx_atoolfor_1ha2n7n1ek0lqk-fill" data-item-order="0" transform="translate(495, 687)"><g id="tx_atoolfor_1ha2n7n1ek0lqk-fill" stroke="none" fill="#f4f4f4"><g><text style="font: 15px Roboto, sans-serif; white-space: pre;" font-size="15px" font-family="Roboto, sans-serif"><tspan x="12" y="30.5" dominant-baseline="ideographic">Typography Made Simple</tspan></text></g></g></g><g id="g-root-15_zoetc31ekd79j-fill" data-item-order="0" transform="translate(277, 740)"></g><g id="g-root-tx_atoolfor_1cz8umb1ekd8ue-fill" data-item-order="0" transform="translate(399, 831)"><g id="tx_atoolfor_1cz8umb1ekd8ue-fill" stroke="none" fill="#f4f4f4"><g><text style="font: 15px Roboto, sans-serif; white-space: pre;" font-size="15px" font-family="Roboto, sans-serif"><tspan x="12" y="30.5" dominant-baseline="ideographic">Text-to-image, image-to-</tspan><tspan x="12" y="48.5" dominant-baseline="ideographic">video, with reference &amp; </tspan><tspan x="12" y="66.5" dominant-baseline="ideographic">more</tspan></text></g></g></g><g id="g-root-tx_flux_4kfcar1ekd91h-fill" data-item-order="0" transform="translate(399, 795)"><g id="tx_flux_4kfcar1ekd91h-fill" stroke="none" fill="#1ac3fb"><g><text style="font: bold 20px Roboto, sans-serif; white-space: pre;" font-weight="bold" font-size="20px" font-family="Roboto, sans-serif"><tspan x="12" y="33.5" dominant-baseline="ideographic">Flux &amp; Hailuo</tspan></text></g></g></g><g id="g-root-tx_lumaai_mdkydf1ejuz9e-fill" data-item-order="0" transform="translate(291, 195)"><g id="tx_lumaai_mdkydf1ejuz9e-fill" stroke="none" fill="#cb68f9"><g><text style="font: bold 20px Roboto, sans-serif; white-space: pre;" font-weight="bold" font-size="20px" font-family="Roboto, sans-serif"><tspan x="17.91" y="33.5" dominant-baseline="ideographic">Luma AI</tspan></text></g></g></g><g id="g-root-tx_atoolfor_1q5pngj1ekbsi0-fill" data-item-order="0" transform="translate(675, 399)"><g id="tx_atoolfor_1q5pngj1ekbsi0-fill" stroke="none" fill="#f4f4f4"><g><text style="font: 15px Roboto, sans-serif; white-space: pre;" font-size="15px" font-family="Roboto, sans-serif"><tspan x="12" y="27.5" dominant-baseline="ideographic">Remove unwanted objects </tspan><tspan x="12" y="45.5" dominant-baseline="ideographic">from your images</tspan></text></g></g></g><g id="g-root-0c.g-0c_fr_1ums0lf1ekd8g6-stroke" data-item-order="-746342" transform="translate(567.1099853515625, 195.21002197265625)"><g id="0c.g-0c_fr_1ums0lf1ekd8g6-stroke" fill="none" stroke-linecap="round" stroke-linejoin="round" stroke-miterlimit="4" stroke="#f4f4f4" stroke-width="2"><g><path d="M 53.72 19.02L 47 29.46L 46.97 29.46L 46.96 29.45L 10 20.44L 16.72 10L 53.72 19.02ZM 114.27 57.9805L 107.55 68.4205L 107.54 68.4205L 47 29.46L 53.72 19.02L 114.27 57.9805ZM 137.82 87.9105L 131.11 98.3505L 131.1 98.3505L 107.54 68.4305L 107.54 68.4205L 107.55 68.4205L 114.27 57.9805L 137.8 87.8805L 137.8 87.8905L 137.82 87.9105Z"></path></g></g></g><g id="g-root-0b.g-0b_fr_qpnfnn1ekd6vc-stroke" data-item-order="-746338" transform="translate(207.52999877929688, 767.4599609375)"><g id="0b.g-0b_fr_qpnfnn1ekd6vc-stroke" fill="none" stroke-linecap="round" stroke-linejoin="round" stroke-miterlimit="4" stroke="#f4f4f4" stroke-width="2"><g><path d="M 131.3 87.61L 62.24 115.22C 54.96 96.99 37.11 84.14 16.29 84.21C 15.48 84.21 14.68 84.23 13.88 84.28L 10 10L 47.02 18.93L 107.67 57.73L 131.3 87.61Z"></path></g></g></g><g id="g-root-0a.g-0a_fr_m9txj71ekd7nm-stroke" data-item-order="-746334" transform="translate(211.41000366210938, 174.11798095703125)"><g id="0a.g-0a_fr_m9txj71ekd7nm-stroke" fill="none" stroke-linecap="round" stroke-linejoin="round" stroke-miterlimit="4" stroke="#f4f4f4" stroke-width="2"><g><path d="M 58.36 708.5621L 12.57 726.8621L 10 677.6221C 10.8 677.5721 11.6 677.5521 12.41 677.5521C 33.23 677.4821 51.08 690.3321 58.36 708.5621ZM 493.5202 108.9917L 498.4702 101.2617C 505.5502 90.1917 504.4902 75.7817 495.8602 65.8617C 473.2102 39.8517 443.5802 20.8817 410.4802 11.2117L 410.4102 11.1917C 397.7902 7.5017 384.2502 12.5817 377.1702 23.6517L 372.4202 31.0817L 409.4202 40.1017L 469.9702 79.0617L 493.5202 108.9817L 493.5202 108.9917Z"></path></g></g></g><g id="g-root-1.g-1_fr_m9txj71ekd7no-stroke" data-item-order="-746330" transform="translate(207.52999877929688, 697.25)"><g id="1.g-1_fr_m9txj71ekd7no-stroke" fill="none" stroke-linecap="round" stroke-linejoin="round" stroke-miterlimit="4" stroke="#1ac3fb" stroke-width="2"><g><path d="M 176.2199 87.6005L 131.2999 157.8205L 107.6699 127.9405L 152.5899 57.7305L 176.2199 87.6005ZM 91.95 18.93L 47.02 89.14L 10 80.21L 54.92 10L 91.95 18.93ZM 152.5899 57.7305L 107.6699 127.9405L 47.02 89.14L 91.95 18.93L 152.5899 57.7305Z"></path></g></g></g><g id="g-root-2.g-2_fr_de6xab1ekd8ge-stroke" data-item-order="-746326" transform="translate(252.45001220703125, 627.0400390625)"><g id="2.g-2_fr_de6xab1ekd8ge-stroke" fill="none" stroke-linecap="round" stroke-linejoin="round" stroke-miterlimit="4" stroke="#43dd93" stroke-width="2"><g><path d="M 91.95 18.93L 47.03 89.14L 10 80.21L 54.92 10L 91.95 18.93ZM 176.2202 87.5995L 131.3002 157.8095L 107.6702 127.9395L 152.6002 57.7295L 176.2202 87.5995ZM 152.6002 57.7295L 107.6702 127.9395L 47.03 89.14L 91.95 18.93L 152.6002 57.7295Z"></path></g></g></g><g id="g-root-3.g-3_fr_hu0fer1ekd8g0-stroke" data-item-order="-746322" transform="translate(297.3699951171875, 556.820068359375)"><g id="3.g-3_fr_hu0fer1ekd8g0-stroke" fill="none" stroke-linecap="round" stroke-linejoin="round" stroke-miterlimit="4" stroke="#a6da37" stroke-width="2"><g><path d="M 91.95 18.93L 47.03 89.15L 10 80.22L 54.92 10L 54.93 10L 91.95 18.93ZM 176.2199 87.6093L 131.2999 157.8193L 107.6799 127.9492L 152.5999 57.7393L 176.2199 87.6093ZM 152.5999 57.7393L 107.6799 127.9492L 47.03 89.15L 91.95 18.93L 152.5999 57.7393Z"></path></g></g></g><g id="g-root-4.g-4_fr_8ydf5v1ekd98q-stroke" data-item-order="-746318" transform="translate(342.29998779296875, 486.6099853515625)"><g id="4.g-4_fr_8ydf5v1ekd98q-stroke" fill="none" stroke-linecap="round" stroke-linejoin="round" stroke-miterlimit="4" stroke="#ffe711" stroke-width="2"><g><path d="M 176.2099 87.6095L 131.2899 157.8195L 107.6699 127.9495L 152.5899 57.7295L 176.2099 87.6095ZM 91.94 18.93L 47.02 89.14L 10 80.21L 54.92 10L 91.94 18.93ZM 152.5899 57.7295L 107.6699 127.9495L 47.02 89.14L 91.94 18.93L 152.5899 57.7295Z"></path></g></g></g><g id="g-root-5.g-5_fr_4j6e4j1ekd6v8-stroke" data-item-order="-746314" transform="translate(387.2200012207031, 416.4000244140625)"><g id="5.g-5_fr_4j6e4j1ekd6v8-stroke" fill="none" stroke-linecap="round" stroke-linejoin="round" stroke-miterlimit="4" stroke="#f79438" stroke-width="2"><g><path d="M 91.94 18.93L 47.02 89.14L 10 80.21L 54.92 10L 91.94 18.93ZM 176.2202 87.5995L 131.2902 157.8195L 107.6702 127.9395L 152.5901 57.7295L 176.2202 87.5995ZM 91.9427 18.9281L 47.0239 89.1387L 107.6737 127.9408L 152.5925 57.7302L 91.9427 18.9281Z"></path></g></g></g><g id="g-root-6.g-6_fr_4j6e4j1ekd6va-stroke" data-item-order="-746310" transform="translate(432.1400146484375, 346.19000244140625)"><g id="6.g-6_fr_4j6e4j1ekd6va-stroke" fill="none" stroke-linecap="round" stroke-linejoin="round" stroke-miterlimit="4" stroke="#fb6762" stroke-width="2"><g><path d="M 176.2199 87.5995L 131.2999 157.8095L 107.6699 127.9395L 152.5899 57.7295L 176.2199 87.5995ZM 91.94 18.93L 47.02 89.14L 10 80.21L 54.92 10L 91.94 18.93ZM 91.9388 18.932L 47.02 89.1426L 107.6698 127.9447L 152.5886 57.7341L 91.9388 18.932Z"></path></g></g></g><g id="g-root-7.g-7_fr_3cw031ekd7nk-stroke" data-item-order="-746306" transform="translate(477.05999755859375, 275.969970703125)"><g id="7.g-7_fr_3cw031ekd7nk-stroke" fill="none" stroke-linecap="round" stroke-linejoin="round" stroke-miterlimit="4" stroke="#f366bb" stroke-width="2"><g><path d="M 176.2199 87.6102L 131.2999 157.8202L 107.6699 127.9502L 152.5899 57.7402L 176.2199 87.6102ZM 91.94 18.93L 47.02 89.15L 10 80.22L 54.92 10L 91.94 18.93ZM 152.4898 57.7706L 107.3899 127.8705L 46.8398 88.9106L 91.9398 18.8105L 152.4898 57.7706Z"></path></g></g></g><g id="g-root-8.g-8_fr_3cw031ekd7nm-stroke" data-item-order="-746302" transform="translate(522.010009765625, 205.6500244140625)"><g id="8.g-8_fr_3cw031ekd7nm-stroke" fill="none" stroke-linecap="round" stroke-linejoin="round" stroke-miterlimit="4" stroke="#cb68f9" stroke-width="2"><g><path d="M 92.09 19.03L 46.99 89.13L 10 80.11L 55.09 10L 55.1 10L 92.06 19.01L 92.07 19.02L 92.08 19.02L 92.09 19.03ZM 176.2 87.9093L 131.1 158.0193L 107.54 128.0893L 152.64 57.9893L 176.2 87.9093ZM 152.64 57.9795L 152.64 57.9893L 107.54 128.0893L 46.99 89.13L 92.09 19.03L 92.09 19.0195L 92.1 19.0195L 152.64 57.9795Z"></path></g></g></g><g id="g-root-tx_bria_1uuw9vn1ekagb3-stroke" data-item-order="0" transform="translate(675, 363)"></g><g id="g-root-robo_qoekn71ek8zda-stroke" data-item-order="0" transform="translate(501, 390)"><g id="robo_qoekn71ek8zda-stroke" fill="none" stroke-linecap="round" stroke-linejoin="round" stroke-miterlimit="4" stroke="#fb6762" stroke-width="2"><g><path d="M 11.695313 21.3477L 11.695313 13.445313C 11.695313 12.478823 12.478823 11.695313 13.445313 11.695313L 21.348015 11.695313M 11.695313 40.652473L 11.695313 48.554775C 11.695313 49.521297 12.478806 50.304775 13.445313 50.304775L 21.348015 50.304775M 50.306175 21.3477L 50.306175 13.445313C 50.306175 12.478823 49.522701 11.695313 48.556175 11.695313L 40.653347 11.695313M 50.306175 40.652473L 50.306175 48.554775C 50.306175 49.521297 49.522701 50.304775 48.556175 50.304775L 40.653347 50.304775M 24.918749 24.19075L 37.083 24.19075C 37.083 24.19075 41.458 24.19075 41.458 28.56575L 41.458 36.085499C 41.458 36.085499 41.458 40.460499 37.083 40.460499L 24.918749 40.460499C 24.918749 40.460499 20.543751 40.460499 20.543751 36.085499L 20.543751 28.56575C 20.543751 28.56575 20.543751 24.19075 24.918749 24.19075M 10 10M 31 17.773937L 31 24.191414M 10 10M 27.250484 30.32765L 27.250484 34.329025M 10 10M 34.752876 30.32765L 34.752876 34.329025"></path></g></g></g><g id="g-root-tx_aplatfor_zjf3sz1ek91qd-stroke" data-item-order="0" transform="translate(195, 375)"></g><g id="g-root-3_93db0j1ek1zwj-stroke" data-item-order="0" transform="translate(455, 460)"><g id="3_93db0j1ek1zwj-stroke" fill="none" stroke-linecap="round" stroke-linejoin="round" stroke-miterlimit="4" stroke="#f79438" stroke-width="2"><g><path d="M 41.5 17.5L 20.5 17.5L 11.5 50.5L 32.5 50.5L 41.5 17.5ZM 50.5 50.5L 41.5 17.5M 34.959999 41.5L 48.040001 41.5"></path></g></g></g><g id="g-root-tx_kling_1ly0bgj1ek0lja-stroke" data-item-order="0" transform="translate(111, 483)"></g><g id="g-root-tx_elevenla_13z8lxf1ek90y4-stroke" data-item-order="0" transform="translate(195, 339)"></g><g id="g-root-tx_atoolfor_1d2db7n1ek0mbz-stroke" data-item-order="0" transform="translate(111, 519)"></g><g id="g-root-tx_easel_dj6t4z1ek1z49-stroke" data-item-order="0" transform="translate(579, 507)"></g><g id="g-root-edit_18n6a6b1ek0jyg-stroke" data-item-order="0" transform="translate(411, 530)"><g id="edit_18n6a6b1ek0jyg-stroke" fill="none" stroke-linecap="round" stroke-linejoin="round" stroke-miterlimit="4" stroke="#ffe711" stroke-width="2"><g><path d="M 24.875 51.125L 12.625 51.125C 11.658502 51.125 10.875 50.341499 10.875 49.375L 10.875 12.625C 10.875 11.658502 11.658502 10.875 12.625 10.875L 35.887749 10.875C 36.351841 10.875099 36.79689 11.059539 37.125 11.38775L 43.612251 17.875C 43.940464 18.203112 44.124901 18.648159 44.125 19.112249L 44.125 24.875M 26.625 34.5C 26.625 36.132748 24.66675 37.452251 22.25 37.452251C 19.83325 37.452251 17.875 36.132748 17.875 34.5C 17.875 32.867252 19.83325 31.5495 22.25 31.5495C 24.66675 31.5495 26.625 32.868999 26.625 34.5ZM 26.625 34.5L 26.625 22.640249C 26.623764 22.014418 26.956823 21.435562 27.498501 21.122112C 28.04018 20.808661 28.708014 20.808332 29.25 21.12125L 32.75 23.125M 50.039997 36.459999L 36.6875 49.8125L 30.125 51.125L 31.4375 44.5625L 44.789997 31.209999C 45.483959 30.51495 46.425823 30.124382 47.407997 30.124382C 48.390179 30.124382 49.332043 30.51495 50.026001 31.209999L 50.039997 31.224001C 50.73505 31.917957 51.125618 32.859821 51.125618 33.842003C 51.125618 34.824177 50.73505 35.766045 50.040001 36.459999Z"></path></g></g></g><g id="g-root-tx_adigital_93db0j1ek1zwi-stroke" data-item-order="0" transform="translate(579, 543)"></g><g id="g-root-pen_1q5pngj1ekbsi1-stroke" data-item-order="0" transform="translate(545, 320)"><g id="pen_1q5pngj1ekbsi1-stroke" fill="none" stroke-linecap="round" stroke-linejoin="round" stroke-miterlimit="4" stroke="#f366bb" stroke-width="2"><g><path d="M 14.377146 42.3741L 36.247501 20.496109L 41.500099 25.746876L 19.629744 47.624866ZM 33.73 39.063999L 46.75 51.125C 50.25 51.125 51.125 50.25 51.125 46.75L 37.196751 35.711002M 49.375 17.875C 50.742161 19.357981 50.742161 21.642019 49.375 23.125L 40.625 31.875M 13.9375 48.0625L 10.875 51.125M 36.249741 20.500204L 45.874523 10.87542L 51.124966 16.125864L 41.500183 25.750648ZM 15.68575 43.6875L 12.625 46.748253L 15.25 49.375L 18.3125 46.3125M 15.25 10.875C 14.929749 17.421751 20.879749 16.616751 23.440001 18.52425C 26.156591 20.580179 26.717188 24.437307 24.69825 27.181501C 18.13225 35.973499 5.46225 20.325001 15.25 10.875Z"></path></g></g></g><g id="g-root-codi_1cu95371ek0mit-stroke" data-item-order="0" transform="translate(365, 600)"><g id="codi_1cu95371ek0mit-stroke" fill="none" stroke-linecap="round" stroke-linejoin="round" stroke-miterlimit="4" stroke="#a6da37" stroke-width="2"><g><path d="M 33.625 42.375C 33.625 47.207489 37.542511 51.125 42.375 51.125C 47.207489 51.125 51.125 47.207489 51.125 42.375C 51.125 37.542511 47.207489 33.625 42.375 33.625C 37.542511 33.625 33.625 37.542511 33.625 42.375ZM 10 10M 44.125 39.75L 46.75 42.375L 44.125 45M 40.625 39.75L 38 42.375L 40.625 45M 10.875 33.625C 10.892015 32.00045 11.227957 30.395063 11.86375 28.9C 12.56375 27.5 15.474 26.5375 19.1315 25.182999C 20.120251 24.817249 19.9575 22.236 19.52 21.753C 18.109983 20.225103 17.419188 18.167997 17.62125 16.098749C 17.494555 14.781227 17.921144 13.470315 18.798952 12.479672C 19.676758 11.489029 20.926805 10.907781 22.25 10.875C 23.573195 10.907781 24.823242 11.489029 25.701046 12.479672C 26.578854 13.470315 27.005444 14.781227 26.87875 16.098749C 27.081326 18.168583 26.390493 20.226433 24.98 21.754749C 24.542501 22.237751 24.379749 24.819 25.3685 25.18475C 29.025999 26.539249 31.938 27.507 32.63625 28.901749C 33.272041 30.396814 33.607986 32.002201 33.625 33.626751ZM 29.095999 11.28975C 29.692783 11.014179 30.342667 10.872615 30.999998 10.875C 32.323193 10.907781 33.573242 11.489029 34.451046 12.479672C 35.328854 13.470315 35.755444 14.781227 35.62875 16.098749C 35.831326 18.168583 35.140495 20.226433 33.73 21.754749C 33.2925 22.237751 33.129749 24.819 34.1185 25.18475C 37.776001 26.539249 40.688 27.507 41.38625 28.901749C 41.438751 29.008501 41.489498 29.11875 41.538498 29.229"></path></g></g></g><g id="g-root-tx_recraftv_v6pvyb1ekemfc-stroke" data-item-order="0" transform="translate(15, 627)"></g><g id="g-root-spar_92qx371ejuxok-stroke" data-item-order="0" transform="translate(589, 250)"><g id="spar_92qx371ejuxok-stroke" fill="none" stroke-linecap="round" stroke-linejoin="round" stroke-miterlimit="4" stroke="#cb68f9" stroke-width="2"><g><path d="M 30.6339 20.240231L 13.997561 20.240231C 12.911055 20.240231 12.03028 21.121021 12.03028 22.20751L 12.03028 47.78215C 12.03028 48.868725 12.911055 49.7495 13.997561 49.7495L 39.572197 49.7495C 40.658775 49.7495 41.539551 48.868725 41.539551 47.78215L 41.539551 31.738325M 10 10M 41.539375 46.04615L 36.517227 39.594776C 35.467224 38.245525 33.49305 37.959225 32.107048 38.9814C 31.98105 39.063297 31.876049 39.165501 31.771051 39.2677L 29.608051 41.373474L 22.677771 32.378124C 21.627752 31.028875 19.653683 30.742575 18.267647 31.764751C 18.036631 31.948851 17.82663 32.153252 17.637611 32.378124L 12.030437 39.656025M 35.713451 19.51013C 39.2663 18.795902 42.126678 15.900615 42.842072 12.255855C 43.557472 15.900615 46.417149 18.795902 49.970173 19.51013M 49.970173 19.514277C 46.417149 20.228523 43.556778 23.123793 42.841377 26.768553C 42.125977 23.123793 39.2663 20.228523 35.713451 19.514277"></path></g></g></g><g id="g-root-tx_aplatfor_qqwdtv1eken7l-stroke" data-item-order="0" transform="translate(15, 663)"></g><g id="g-root-tx_ideogram_1q5pngj1ek0kxv-stroke" data-item-order="0" transform="translate(495, 651)"></g><g id="g-root-cap_dg2cjn1ekelmq-stroke" data-item-order="0" transform="translate(321, 670)"><g id="cap_dg2cjn1ekelmq-stroke" fill="none" stroke-linecap="round" stroke-linejoin="round" stroke-miterlimit="4" stroke="#43dd93" stroke-width="2"><g><path d="M 10 10M 49.826149 42.860275L 24.252928 42.860275M 24.252928 19.13969L 49.826149 19.13969M 24.034124 42.860275C 17.483858 42.860275 12.173833 37.550251 12.173833 31C 12.173833 24.44968 17.483858 19.139656 24.034124 19.139656M 49.826149 31L 28.8433 31M 21.052999 31C 21.053001 33.151424 22.797075 34.8955 24.948502 34.8955C 27.099926 34.8955 28.844002 33.151424 28.844002 31.000002C 28.844002 28.848576 27.099926 27.1045 24.948502 27.1045C 22.797075 27.1045 21.053001 28.848576 21.053001 31.000002"></path></g></g></g><g id="g-root-tx_atoolfor_dhxy4j1ejv023-stroke" data-item-order="0" transform="translate(291, 231)"></g><g id="g-root-tx_atoolfor_1ha2n7n1ek0lqk-stroke" data-item-order="0" transform="translate(495, 687)"></g><g id="g-root-15_zoetc31ekd79j-stroke" data-item-order="0" transform="translate(277, 740)"><g id="15_zoetc31ekd79j-stroke" fill="none" stroke-linecap="round" stroke-linejoin="round" stroke-miterlimit="4" stroke="#1ac3fb" stroke-width="2"><g><path d="M 10 10M 46.75 49.375L 15.25 49.375C 13.800247 49.375 12.625 48.199699 12.625 46.75L 12.625 15.25C 12.625 13.800247 13.800247 12.625 15.25 12.625L 46.75 12.625C 48.199699 12.625 49.375 13.800265 49.375 15.25L 49.375 46.75C 49.375 48.199699 48.199699 49.375 46.75 49.375ZM 10 10M 12.625 30.993176L 49.375 30.993176M 10 10M 21.8125 49.375L 21.8125 30.993176M 10 10M 40.1875 49.375L 40.1875 30.993176M 10 10M 31 49.375L 31 30.993176"></path></g></g></g><g id="g-root-tx_atoolfor_1cz8umb1ekd8ue-stroke" data-item-order="0" transform="translate(399, 831)"></g><g id="g-root-tx_flux_4kfcar1ekd91h-stroke" data-item-order="0" transform="translate(399, 795)"></g><g id="g-root-tx_lumaai_mdkydf1ejuz9e-stroke" data-item-order="0" transform="translate(291, 195)"></g><g id="g-root-tx_atoolfor_1q5pngj1ekbsi0-stroke" data-item-order="0" transform="translate(675, 399)"></g></g></g></svg>