<svg width="70" height="30" viewBox="0 0 70 30" fill="none" xmlns="http://www.w3.org/2000/svg">
<g clip-path="url(#clip0_2018_2450)">
<path d="M68.0545 17.2033C68.1612 16.5654 68.2497 15.8782 68.2497 15.1348C68.2497 9.46368 63.7594 6.71461 58.2633 6.71461C52.2361 6.71461 48.336 9.98923 47.0965 15.9523L46.8331 17.2033L44.8831 17.2033C44.9898 16.5654 45.0783 15.8782 45.0783 15.1348C45.0783 9.46368 40.588 6.71461 35.0919 6.71461C29.0647 6.71461 25.1646 9.98924 23.9251 15.9523L23.6617 17.2033L21.7412 17.2033L21.8593 16.653C22.1544 15.3661 22.2724 14.1959 22.2724 13.2032C22.2724 8.87748 19.8479 6.71236 15.3575 6.71236C13.1124 6.71236 11.1623 7.5299 9.68672 9.11106L11.5369 0.497756L4.19977 0.497757L0.295119 18.6564L2.20658 18.6564L-2.56236e-08 28.9138L7.26674 28.9138L9.80477 17.2033L7.916 17.2033C8.64472 14.1353 10.0295 12.8529 11.9228 12.8529C13.9296 12.8529 14.6402 13.731 14.6402 15.4267C14.6402 15.9523 14.5834 16.5946 14.4041 17.2954L14.109 18.6564L16 18.6564L13.7684 28.9138L21.1532 28.9138L23.3916 18.4431L23.3462 18.6564L25.294 18.6564C25.1805 19.2831 25.0511 20.1927 25.0511 21.1382C25.0533 26.2838 28.7764 29.5 34.9217 29.5C41.067 29.5 44.9694 26.167 46.2089 20.2623L46.5471 18.6587L48.538 18.6587L46.3428 28.916L53.6708 28.916L56.193 17.2055L54.1294 17.2055L54.361 16.1275C54.7741 13.9062 55.9569 12.8551 58.025 12.8551C60.0931 12.8551 61.0375 13.9669 61.0375 15.8939C61.0375 16.3633 60.9807 16.5946 60.9194 16.8282L60.5244 18.6564L62.3428 18.6564L60.1112 28.9138L67.496 28.9138L70 17.2033L68.0545 17.2033ZM35.3371 23.3618C33.328 23.3618 32.2611 22.25 32.2611 20.3814C32.2611 19.9119 32.3201 19.6806 32.3814 19.4448L32.8627 17.2055L30.9535 17.2055L31.185 16.1275C31.5982 13.9062 32.7809 12.8551 34.849 12.8551C36.9171 12.8551 37.8615 13.9669 37.8615 15.8939C37.8615 16.3633 37.8048 16.5946 37.7435 16.8282L37.3485 18.6564L39.2486 18.6564L38.9398 20.0871C38.4654 22.3084 37.3439 23.3595 35.3348 23.3595L35.3371 23.3618Z" fill="black"/>
</g>
<defs>
<clipPath id="clip0_2018_2450">
<rect width="29" height="70" fill="white" transform="translate(0 29.5) rotate(-90)"/>
</clipPath>
</defs>
</svg> 